<svg width="32.000000" height="32.000000" viewBox="0 0 32 32" fill="none" xmlns="http://www.w3.org/2000/svg" xmlns:xlink="http://www.w3.org/1999/xlink">
	<desc>
			Created with Pixso.
	</desc>
	<defs>
		<clipPath id="clip145_222">
			<rect id="附件" width="32.000000" height="32.000000" fill="white"/>
		</clipPath>
	</defs>
	<g clip-path="url(#clip145_222)">
		<path id="path" d="M24.6857 17.3008L16.7 25.2852C15.5857 26.4004 14.2857 27.1426 12.6143 27.1426C10.9429 27.1426 9.64285 26.4004 8.52856 25.2852C6.3 23.0566 6.3 19.3438 8.52856 17.1152L19.6714 5.9707C20.4143 5.22852 21.3428 4.85742 22.2714 4.85742C23.2 4.85742 24.1286 5.22852 24.8714 5.9707C26.1714 7.27148 26.1714 9.68555 24.8714 10.9863L13.7286 22.1289C13.5429 22.3145 13.1714 22.5 12.8 22.5C12.4286 22.5 12.0571 22.3145 11.8714 22.1289C11.3143 21.5723 11.3143 20.8281 11.8714 20.2715L23.0143 9.12891C23.3857 8.75781 23.3857 8.19922 23.0143 7.82812C22.8286 7.64258 22.6429 7.45703 22.2714 7.45703C22.0857 7.45703 21.7143 7.64258 21.5286 7.82812L10.3857 18.9707C9.82857 19.5293 9.45714 20.457 9.45714 21.1992C9.45714 22.1289 9.82857 22.8711 10.3857 23.4277C10.9429 23.9863 11.8714 24.3574 12.6143 24.3574C13.5429 24.3574 14.2857 23.9863 14.8428 23.4277L25.9857 12.2852C27.1 11.1719 27.6571 9.87109 27.6571 8.38477C27.6571 6.90039 27.1 5.59961 25.9857 4.48633C25.0571 3.55664 23.7571 3 22.2714 3C20.7857 3 19.4857 3.55664 18.3714 4.67188L7.22858 15.8145C5.74286 17.3008 5 19.1562 5 21.1992C5 23.2422 5.74286 25.2852 7.22858 26.5859C8.71428 28.2578 10.5714 29 12.6143 29C14.6571 29 16.7 28.2578 18 26.7715L25.9857 18.7852C26.3571 18.4141 26.3571 17.8574 25.9857 17.4863C25.6143 16.9277 25.0571 17.1152 24.6857 17.3008Z" fill-rule="nonzero" fill="#FFFFFF"/>
	</g>
</svg>
