<svg width="32.000000" height="32.000000" viewBox="0 0 32 32" fill="none" xmlns="http://www.w3.org/2000/svg" xmlns:xlink="http://www.w3.org/1999/xlink">
	<desc>
			Created with Pixso.
	</desc>
	<defs>
		<clipPath id="clip145_218">
			<rect id="icon_自由主题" width="32.000000" height="32.000000" fill="white"/>
		</clipPath>
	</defs>
	<g clip-path="url(#clip145_218)">
		<path id="path" d="M7.16698 20.0117C7.13158 20.0469 7.10431 20.0879 7.08516 20.1348C7.06602 20.1816 7.05644 20.2285 7.05644 20.2793C7.05644 20.3301 7.06602 20.377 7.08517 20.4238C7.10431 20.4707 7.13158 20.5117 7.16698 20.5469L11.4533 24.834C11.4888 24.8691 11.5297 24.8965 11.5761 24.9141C11.6224 24.9336 11.6706 24.9434 11.7207 24.9434C11.7709 24.9434 11.8191 24.9336 11.8654 24.9141C11.9118 24.8965 11.9527 24.8691 11.9882 24.834L24.8457 11.9746C24.8811 11.9395 24.9084 11.8984 24.9275 11.8535C24.9467 11.8066 24.9562 11.7578 24.9562 11.709C24.9562 11.6582 24.9467 11.6094 24.9275 11.5625C24.9084 11.5176 24.8811 11.4766 24.8457 11.4414L20.5594 7.1543C20.5238 7.11914 20.4828 7.0918 20.4364 7.07227C20.3899 7.05273 20.3415 7.04297 20.2912 7.04297C20.2409 7.04297 20.1925 7.05273 20.146 7.07227C20.0995 7.0918 20.0585 7.11914 20.023 7.1543L7.16698 20.0117ZM5.56091 22.1543C5.4995 22.0938 5.44125 22.0293 5.38615 21.9609C5.33105 21.8945 5.27937 21.8242 5.23112 21.752C5.18288 21.6797 5.13828 21.6055 5.09734 21.5293C5.0564 21.4531 5.0193 21.375 4.98607 21.2949C4.95284 21.2129 4.92361 21.1328 4.89839 21.0488C4.87318 20.9668 4.85211 20.8809 4.83516 20.7969C4.81822 20.7109 4.8055 20.625 4.79698 20.5391C4.78847 20.4531 4.78421 20.3652 4.78421 20.2793C4.78421 20.1934 4.78847 20.1055 4.79698 20.0195C4.8055 19.9336 4.81822 19.8477 4.83516 19.7617C4.85211 19.6758 4.87318 19.5918 4.89839 19.5098C4.92361 19.4258 4.95284 19.3457 4.98607 19.2637C5.0193 19.1836 5.0564 19.1055 5.09734 19.0293C5.13828 18.9531 5.18288 18.8789 5.23112 18.8066C5.27937 18.7344 5.33105 18.6641 5.38615 18.5977C5.44125 18.5293 5.4995 18.4648 5.56091 18.4043L18.4169 5.54883C18.4783 5.48633 18.5426 5.42773 18.6097 5.37305C18.6769 5.31836 18.7466 5.26758 18.8188 5.21875C18.891 5.16992 18.9654 5.125 19.0419 5.08398C19.1185 5.04297 19.1969 5.00586 19.2772 4.97266C19.3574 4.93945 19.4391 4.91016 19.5222 4.88477C19.6053 4.86133 19.6894 4.83984 19.7746 4.82227C19.8598 4.80469 19.9456 4.79297 20.032 4.78516C20.1185 4.77539 20.2051 4.77148 20.2919 4.77148C20.3788 4.77148 20.4654 4.77539 20.5518 4.78516C20.6383 4.79297 20.7241 4.80469 20.8092 4.82227C20.8944 4.83984 20.9786 4.86133 21.0617 4.88477C21.1448 4.91016 21.2264 4.93945 21.3067 4.97266C21.3869 5.00586 21.4653 5.04297 21.5419 5.08398C21.6185 5.125 21.6929 5.16992 21.7651 5.21875C21.8373 5.26758 21.907 5.31836 21.9741 5.37305C22.0413 5.42773 22.1055 5.48633 22.1669 5.54883L26.4518 9.83398C26.5132 9.89453 26.5714 9.95898 26.6265 10.0254C26.6816 10.0938 26.7333 10.1621 26.7816 10.2344C26.8298 10.3066 26.8744 10.3809 26.9153 10.459C26.9563 10.5352 26.9934 10.6133 27.0266 10.6934C27.0598 10.7734 27.0891 10.8555 27.1143 10.9375C27.1395 11.0215 27.1606 11.1055 27.1775 11.1914C27.1945 11.2754 27.2072 11.3613 27.2157 11.4473C27.2242 11.5352 27.2285 11.6211 27.2285 11.709C27.2285 11.7949 27.2242 11.8809 27.2157 11.9688C27.2072 12.0547 27.1945 12.1406 27.1775 12.2246C27.1606 12.3105 27.1395 12.3945 27.1143 12.4785C27.0891 12.5605 27.0598 12.6426 27.0266 12.7227C26.9934 12.8027 26.9563 12.8809 26.9153 12.959C26.8744 13.0352 26.8298 13.1094 26.7816 13.1816C26.7333 13.2539 26.6816 13.3223 26.6265 13.3906C26.5714 13.457 26.5132 13.5215 26.4518 13.584L13.5957 26.4395C13.5343 26.5 13.4701 26.5586 13.4029 26.6133C13.3358 26.6699 13.2661 26.7207 13.1939 26.7695C13.1217 26.8164 13.0473 26.8613 12.9707 26.9023C12.8941 26.9434 12.8157 26.9805 12.7355 27.0137C12.6553 27.0469 12.5736 27.0762 12.4905 27.1016C12.4074 27.127 12.3232 27.1484 12.2381 27.1641C12.1529 27.1816 12.0671 27.1953 11.9807 27.2031C11.8942 27.2109 11.8076 27.2148 11.7207 27.2148C11.6339 27.2148 11.5473 27.2109 11.4608 27.2031C11.3744 27.1953 11.2886 27.1816 11.2034 27.1641C11.1183 27.1484 11.0341 27.127 10.951 27.1016C10.8679 27.0762 10.7862 27.0469 10.706 27.0137C10.6258 26.9805 10.5473 26.9434 10.4708 26.9023C10.3942 26.8613 10.3198 26.8164 10.2476 26.7695C10.1754 26.7207 10.1057 26.6699 10.0386 26.6133C9.97142 26.5586 9.90715 26.5 9.84575 26.4395L5.56091 22.1543ZM9.30939 22.6914C9.36208 22.7441 9.40912 22.8008 9.4505 22.8633C9.4919 22.9238 9.52686 22.9902 9.55536 23.0586C9.58386 23.1289 9.60539 23.1992 9.61992 23.2715C9.63446 23.3457 9.64172 23.4199 9.64172 23.4941C9.64172 23.5684 9.63446 23.6426 9.61992 23.7148C9.60539 23.7891 9.58386 23.8594 9.55536 23.9277C9.52686 23.9961 9.4919 24.0625 9.4505 24.125C9.40912 24.1875 9.36208 24.2441 9.30939 24.2969L3.95334 29.6543C3.90091 29.709 3.84363 29.7578 3.78152 29.8008C3.71942 29.8418 3.6537 29.8789 3.58437 29.9082C3.51503 29.9375 3.44345 29.9609 3.36961 29.9766C3.29578 29.9922 3.22113 30 3.14569 30C3.07025 30.002 2.99548 29.9941 2.9214 29.9805C2.84732 29.9668 2.77538 29.9453 2.70555 29.916C2.63574 29.8867 2.56944 29.8516 2.50664 29.8105C2.44383 29.7676 2.38577 29.7207 2.33246 29.668C2.27913 29.6133 2.2316 29.5566 2.18985 29.4941C2.1481 29.4297 2.11296 29.3633 2.08443 29.2949C2.05588 29.2246 2.03452 29.1523 2.02031 29.0781C2.00612 29.0039 1.99936 28.9297 2.00005 28.8535C2.00073 28.7793 2.00887 28.7031 2.02441 28.6309C2.03998 28.5566 2.06265 28.4844 2.09247 28.416C2.12227 28.3457 2.15863 28.2812 2.20151 28.2188C2.2444 28.1562 2.293 28.0996 2.34729 28.0469L7.70334 22.6914C7.75609 22.6387 7.81346 22.5918 7.87547 22.5488C7.93748 22.5078 8.00293 22.4727 8.07182 22.4453C8.14072 22.416 8.21172 22.3945 8.28484 22.3809C8.35797 22.3652 8.43181 22.3574 8.50636 22.3574C8.58092 22.3574 8.65475 22.3652 8.72787 22.3809C8.80101 22.3945 8.87201 22.416 8.9409 22.4453C9.0098 22.4727 9.07524 22.5078 9.13725 22.5488C9.19926 22.5918 9.25664 22.6387 9.30939 22.6914ZM29.6669 2.33398C29.7197 2.38672 29.7668 2.44336 29.8083 2.50586C29.8498 2.56641 29.8849 2.63281 29.9134 2.70117C29.942 2.77148 29.9636 2.8418 29.9781 2.91602C29.9927 2.98828 30 3.0625 30 3.13672C30 3.21094 29.9927 3.28516 29.9781 3.35938C29.9636 3.43164 29.942 3.50391 29.9134 3.57227C29.8849 3.64062 29.8498 3.70703 29.8083 3.76758C29.7668 3.83008 29.7197 3.88867 29.6669 3.94141L24.3109 9.29883C24.2581 9.35156 24.2007 9.39844 24.1386 9.43945C24.0766 9.48047 24.011 9.51562 23.9421 9.54492C23.8731 9.57227 23.802 9.5957 23.7288 9.60938C23.6556 9.62305 23.5817 9.63086 23.5071 9.63086C23.4324 9.63086 23.3585 9.62305 23.2853 9.60938C23.2121 9.5957 23.141 9.57227 23.0721 9.54492C23.0031 9.51562 22.9376 9.48047 22.8755 9.43945C22.8135 9.39844 22.7561 9.35156 22.7033 9.29883C22.6505 9.24609 22.6034 9.1875 22.5619 9.125C22.5205 9.06445 22.4854 8.99805 22.4569 8.92969C22.4283 8.86133 22.4068 8.78906 22.3922 8.7168C22.3776 8.64258 22.3703 8.56836 22.3703 8.49414C22.3703 8.41992 22.3776 8.3457 22.3922 8.27344C22.4068 8.19922 22.4283 8.12891 22.4569 8.05859C22.4854 7.99023 22.5205 7.92578 22.5619 7.86328C22.6034 7.80078 22.6505 7.74414 22.7033 7.69141L28.0593 2.33398C28.1121 2.28125 28.1695 2.23242 28.2316 2.19141C28.2936 2.15039 28.3591 2.11523 28.4281 2.08594C28.497 2.05859 28.5681 2.03711 28.6413 2.02148C28.7146 2.00781 28.7885 2 28.8631 2C28.9378 2 29.0117 2.00781 29.0849 2.02148C29.1581 2.03711 29.2292 2.05859 29.2982 2.08594C29.3671 2.11523 29.4326 2.15039 29.4947 2.19141C29.5567 2.23242 29.6141 2.28125 29.6669 2.33398ZM8.2397 15.7246C8.29245 15.6719 8.34982 15.625 8.41183 15.584C8.47385 15.543 8.53929 15.5078 8.60818 15.4805C8.67708 15.4512 8.74808 15.4297 8.8212 15.4141C8.89433 15.4004 8.96817 15.3926 9.04272 15.3926C9.11728 15.3926 9.19112 15.4004 9.26424 15.4141C9.33737 15.4297 9.40837 15.4512 9.47726 15.4805C9.54616 15.5078 9.6116 15.543 9.67361 15.584C9.73563 15.625 9.793 15.6719 9.84575 15.7246L16.2745 22.1543C16.3304 22.207 16.3804 22.2637 16.4247 22.3262C16.4691 22.3867 16.5068 22.4531 16.5378 22.5234C16.5689 22.5938 16.5927 22.6641 16.6092 22.7402C16.6257 22.8145 16.6347 22.8887 16.636 22.9648C16.6374 23.041 16.6311 23.1172 16.6172 23.1934C16.6033 23.2676 16.5821 23.3398 16.5535 23.4121C16.5249 23.4824 16.4896 23.5488 16.4475 23.6133C16.4053 23.6758 16.3573 23.7344 16.3034 23.7891C16.2494 23.8438 16.1906 23.8906 16.127 23.9336C16.0634 23.9746 15.9962 24.0098 15.9254 24.0391C15.8547 24.0684 15.7818 24.0898 15.7068 24.1035C15.6317 24.1172 15.5561 24.123 15.4798 24.1211C15.4035 24.1211 15.3281 24.1113 15.2536 24.0957C15.1791 24.0781 15.107 24.0547 15.0374 24.0234C14.9677 23.9922 14.9017 23.9551 14.8396 23.9102C14.7775 23.8652 14.7205 23.8164 14.6685 23.7598L8.2397 17.334C8.18701 17.2812 8.13997 17.2227 8.09859 17.1602C8.05719 17.0996 8.02223 17.0332 7.99373 16.9648C7.96523 16.8965 7.9437 16.8242 7.92917 16.752C7.91463 16.6777 7.90736 16.6055 7.90736 16.5293C7.90736 16.4551 7.91463 16.3809 7.92917 16.3086C7.9437 16.2363 7.96523 16.1641 7.99373 16.0957C8.02223 16.0273 8.05719 15.9609 8.09859 15.8984C8.13997 15.8379 8.18701 15.7773 8.2397 15.7246ZM11.9897 11.9746C12.0424 11.9219 12.0998 11.875 12.1618 11.834C12.2238 11.793 12.2893 11.7578 12.3582 11.7305C12.4271 11.7012 12.4981 11.6797 12.5712 11.6641C12.6443 11.6504 12.7182 11.6426 12.7927 11.6426C12.8673 11.6426 12.9411 11.6504 13.0142 11.6641C13.0874 11.6797 13.1584 11.7012 13.2272 11.7305C13.2961 11.7578 13.3616 11.793 13.4236 11.834C13.4856 11.875 13.543 11.9219 13.5957 11.9746L20.0245 18.4043C20.0803 18.457 20.1304 18.5137 20.1747 18.5762C20.2191 18.6367 20.2568 18.7031 20.2878 18.7734C20.3189 18.8438 20.3427 18.9141 20.3592 18.9902C20.3757 19.0645 20.3847 19.1387 20.386 19.2148C20.3873 19.291 20.3811 19.3672 20.3672 19.4434C20.3533 19.5176 20.332 19.5898 20.3035 19.6621C20.2749 19.7324 20.2396 19.7988 20.1974 19.8633C20.1553 19.9258 20.1073 19.9844 20.0533 20.0391C19.9994 20.0938 19.9406 20.1406 19.877 20.1836C19.8134 20.2246 19.7462 20.2598 19.6754 20.2891C19.6047 20.3184 19.5318 20.3398 19.4568 20.3535C19.3817 20.3672 19.3061 20.373 19.2298 20.3711C19.1535 20.3711 19.0781 20.3613 19.0036 20.3457C18.9291 20.3281 18.857 20.3047 18.7873 20.2734C18.7176 20.2422 18.6517 20.2051 18.5896 20.1602C18.5275 20.1172 18.4705 20.0664 18.4185 20.0098L11.9882 13.584C11.9355 13.5312 11.8884 13.4746 11.847 13.4121C11.8057 13.3496 11.7707 13.2852 11.7422 13.2168C11.7137 13.1465 11.6922 13.0762 11.6776 13.0039C11.6631 12.9297 11.6558 12.8555 11.6558 12.7812C11.6558 12.707 11.6631 12.6328 11.6776 12.5605C11.6922 12.4863 11.7137 12.416 11.7422 12.3477C11.7707 12.2773 11.8057 12.2129 11.847 12.1504C11.8884 12.0879 11.937 12.0273 11.9897 11.9746ZM15.7382 8.22461C15.7909 8.17188 15.8483 8.125 15.9103 8.08398C15.9723 8.04297 16.0378 8.00781 16.1066 7.98047C16.1755 7.95117 16.2465 7.92969 16.3197 7.91406C16.3928 7.90039 16.4666 7.89258 16.5412 7.89258C16.6157 7.89258 16.6896 7.90039 16.7627 7.91406C16.8358 7.92969 16.9068 7.95117 16.9757 7.98047C17.0446 8.00781 17.1101 8.04297 17.1721 8.08398C17.2341 8.125 17.2915 8.17188 17.3442 8.22461L23.7745 14.6543C23.8257 14.707 23.8714 14.7656 23.9114 14.8262C23.9514 14.8887 23.9851 14.9551 24.0124 15.0234C24.0397 15.0918 24.0602 15.1621 24.0737 15.2344C24.0873 15.3066 24.0938 15.3809 24.0931 15.4531C24.0924 15.5273 24.0846 15.5996 24.0697 15.6719C24.0548 15.7441 24.0331 15.8145 24.0045 15.8828C23.976 15.9512 23.9411 16.0156 23.9 16.0781C23.8588 16.1387 23.8121 16.1953 23.7599 16.248C23.7077 16.2988 23.651 16.3457 23.5897 16.3867C23.5284 16.4277 23.4638 16.4629 23.3957 16.4922C23.3277 16.5195 23.2575 16.541 23.1852 16.5566C23.1129 16.5723 23.0399 16.5781 22.9661 16.5801C22.8923 16.5801 22.8192 16.5742 22.7467 16.5605C22.6741 16.5469 22.6036 16.5254 22.5351 16.498C22.4666 16.4707 22.4014 16.4375 22.3394 16.3965C22.2775 16.3574 22.22 16.3125 22.1669 16.2598L15.7382 9.83398C15.6855 9.78125 15.6384 9.72266 15.597 9.66016C15.5556 9.59961 15.5207 9.5332 15.4922 9.46484C15.4637 9.39648 15.4422 9.32422 15.4276 9.25195C15.4131 9.17773 15.4058 9.10547 15.4058 9.0293C15.4058 8.95508 15.4131 8.88086 15.4276 8.80859C15.4422 8.73633 15.4637 8.66406 15.4922 8.5957C15.5207 8.52734 15.5556 8.46094 15.597 8.39844C15.6384 8.33789 15.6855 8.27734 15.7382 8.22461ZM18.9533 6.61914C19.006 6.67188 19.053 6.73047 19.0944 6.79102C19.1358 6.85352 19.1708 6.91992 19.1993 6.98828C19.2278 7.05664 19.2493 7.12695 19.2638 7.20117C19.2784 7.27344 19.2856 7.34766 19.2856 7.42188C19.2856 7.49609 19.2784 7.57031 19.2638 7.64453C19.2493 7.7168 19.2278 7.78906 19.1993 7.85742C19.1708 7.92578 19.1358 7.99219 19.0944 8.05273C19.053 8.11523 19.006 8.17188 18.9533 8.22461L8.2397 18.9414C8.18726 18.9941 8.12999 19.043 8.06789 19.0859C8.00577 19.1289 7.94005 19.166 7.87073 19.1953C7.80139 19.2246 7.7298 19.248 7.65596 19.2637C7.58212 19.2793 7.50748 19.2871 7.43204 19.2871C7.3566 19.2871 7.28183 19.2812 7.20775 19.2676C7.13367 19.252 7.06172 19.2305 6.99191 19.2031C6.9221 19.1738 6.85579 19.1387 6.79298 19.0977C6.73019 19.0547 6.67213 19.0078 6.6188 18.9531C6.56549 18.9004 6.51794 18.8418 6.4762 18.7793C6.43445 18.7168 6.39931 18.6504 6.37077 18.5801C6.34224 18.5117 6.32086 18.4395 6.30667 18.3652C6.29247 18.291 6.28571 18.2148 6.28639 18.1406C6.28709 18.0645 6.29521 17.9902 6.31076 17.916C6.32632 17.8418 6.349 17.7715 6.37881 17.7012C6.40863 17.6328 6.44498 17.5664 6.48787 17.5039C6.53076 17.4434 6.57935 17.3848 6.63364 17.334L17.3457 6.61914C17.3985 6.56641 17.4559 6.51953 17.518 6.47852C17.58 6.4375 17.6455 6.40234 17.7145 6.37305C17.7834 6.34375 17.8545 6.32227 17.9277 6.30859C18.0009 6.29297 18.0749 6.28711 18.1495 6.28711C18.2242 6.28711 18.2981 6.29297 18.3713 6.30859C18.4445 6.32227 18.5156 6.34375 18.5845 6.37305C18.6535 6.40234 18.719 6.4375 18.7811 6.47852C18.8431 6.51953 18.9005 6.56641 18.9533 6.61914ZM25.3806 13.0488C25.4332 13.1016 25.4803 13.1582 25.5217 13.2207C25.5631 13.2832 25.598 13.3477 25.6265 13.416C25.655 13.4863 25.6766 13.5566 25.6911 13.6289C25.7056 13.7031 25.7129 13.7773 25.7129 13.8516C25.7129 13.9258 25.7056 14 25.6911 14.0723C25.6766 14.1465 25.655 14.2168 25.6265 14.2852C25.598 14.3555 25.5631 14.4199 25.5217 14.4824C25.4803 14.5449 25.4332 14.6016 25.3806 14.6543L14.6685 25.3672C14.6161 25.4219 14.5589 25.4707 14.4968 25.5137C14.4347 25.5566 14.369 25.5938 14.2997 25.623C14.2304 25.6523 14.1589 25.6758 14.085 25.6914C14.0112 25.707 13.9366 25.7148 13.8611 25.7148C13.7857 25.7148 13.7109 25.709 13.6368 25.6953C13.5627 25.6797 13.4908 25.6602 13.4209 25.6309C13.3511 25.6016 13.2848 25.5664 13.2219 25.5254C13.1591 25.4844 13.101 25.4355 13.0476 25.3828C12.9942 25.3301 12.9466 25.2715 12.9048 25.209C12.863 25.1465 12.8278 25.0801 12.7992 25.0098C12.7706 24.9395 12.7492 24.8672 12.7349 24.793C12.7206 24.7188 12.7138 24.6445 12.7144 24.5703C12.715 24.4941 12.7231 24.4199 12.7386 24.3457C12.7541 24.2715 12.7767 24.1992 12.8064 24.1309C12.8362 24.0605 12.8725 23.9961 12.9153 23.9336C12.9581 23.8711 13.0067 23.8145 13.0609 23.7617L23.773 13.0488C23.8257 12.9961 23.8831 12.9492 23.9452 12.9062C24.0073 12.8652 24.0728 12.8301 24.1417 12.8008C24.2107 12.7734 24.2818 12.752 24.355 12.7363C24.4282 12.7227 24.5021 12.7148 24.5768 12.7148C24.6514 12.7148 24.7253 12.7227 24.7986 12.7363C24.8718 12.752 24.9428 12.7734 25.0118 12.8008C25.0808 12.8301 25.1463 12.8652 25.2083 12.9062C25.2704 12.9492 25.3278 12.9961 25.3806 13.0488Z" fill-rule="nonzero" fill="#FFFFFF"/>
	</g>
</svg>
