<svg width="32.000000" height="32.000000" viewBox="0 0 32 32" fill="none" xmlns="http://www.w3.org/2000/svg" xmlns:xlink="http://www.w3.org/1999/xlink">
	<desc>
			Created with Pixso.
	</desc>
	<defs>
		<clipPath id="clip167_42">
			<rect id="icon_通用工器具" width="32.000000" height="32.000000" fill="white"/>
		</clipPath>
	</defs>
	<g clip-path="url(#clip167_42)">
		<path id="path" d="M29.1404 5.59961C28.7 5.16016 28.1147 4.91797 27.4922 4.91797C22.47 4.91797 17.7605 0.789062 17.7141 0.748047C17.2869 0.359375 16.7314 0.146484 16.1509 0.146484C15.5757 0.146484 15.0217 0.359375 14.5906 0.744141C14.5786 0.753906 13.3792 1.8125 11.5615 2.85547C9.91968 3.79688 7.41602 4.91797 4.81201 4.91797C3.5249 4.91797 2.47803 5.96094 2.47803 7.24414L2.47803 14.0781C2.47803 20.291 6.16821 25.502 14.8171 31.5059C15.2083 31.7773 15.6694 31.9219 16.1509 31.9219C16.6323 31.9219 17.0935 31.7773 17.4841 31.5059C26.1331 25.502 29.8232 20.291 29.8232 14.0781L29.8232 7.24414C29.8232 6.62305 29.5808 6.03906 29.1404 5.59961ZM27.4282 14.0781C27.4282 17.8398 26.0874 22.6152 16.1509 29.5195C6.21631 22.6152 4.87573 17.8398 4.87573 14.0781L4.87573 7.30664C6.24219 7.29883 7.68115 7.04688 9.15356 6.55859C10.3489 6.16211 11.5688 5.60742 12.7798 4.91211C14.6357 3.84766 15.9062 2.76953 16.1506 2.55664C16.395 2.76953 17.665 3.84766 19.521 4.91211C20.7319 5.60742 21.9521 6.16211 23.1477 6.55859C24.6208 7.04688 26.0605 7.29883 27.4282 7.30664L27.4282 14.0781Z" fill-rule="nonzero" fill="#FFFFFF"/>
		<path id="path" d="M21.9829 16.0645C21.2759 14.8828 21.7012 13.3691 22.9324 12.6797L21.6082 10.4688C21.2297 10.6816 20.79 10.8047 20.3206 10.8047C18.9055 10.8047 17.7583 9.69141 17.7583 8.31641L15.1099 8.31641C15.1133 8.74023 15.0037 9.16992 14.7683 9.56445C14.0613 10.7461 12.4897 11.1465 11.2566 10.4629L9.93237 12.6738C10.3137 12.8848 10.6436 13.1895 10.8784 13.582C11.5842 14.7617 11.1614 16.2734 9.93481 16.9629L11.2588 19.1738C11.636 18.9629 12.0737 18.8418 12.5405 18.8418C13.9512 18.8418 15.0955 19.9492 15.1028 21.3164L17.7512 21.3164C17.75 20.8965 17.8601 20.4707 18.0928 20.082C18.7986 18.9023 20.3665 18.5 21.5986 19.1816L22.9229 16.9688C22.5442 16.7598 22.2163 16.4531 21.9829 16.0645ZM16.4324 17.4492C14.9255 17.4492 13.7039 16.2695 13.7039 14.8164C13.7039 13.3633 14.9255 12.1836 16.4324 12.1836C17.9392 12.1836 19.1606 13.3633 19.1606 14.8164C19.1606 16.2695 17.9392 17.4492 16.4324 17.4492Z" fill-rule="nonzero" fill="#FFFFFF"/>
	</g>
</svg>
