<svg width="48.000000" height="48.000000" viewBox="0 0 48 48" fill="none" xmlns="http://www.w3.org/2000/svg" xmlns:xlink="http://www.w3.org/1999/xlink">
	<desc>
			Created with Pixso.
	</desc>
	<defs/>
	<path id="path" d="M12 21.5996L36 21.5996C37.6001 21.5996 38.4001 22.4004 38.4001 24C38.4001 25.5996 37.6001 26.4004 36 26.4004L12 26.4004C10.4001 26.4004 9.6001 25.5996 9.6001 24C9.6001 22.4004 10.4001 21.5996 12 21.5996Z" fill-rule="nonzero" fill="#FFFFFF"/>
	<path id="path" d="M26.4001 12L26.4001 36C26.4001 37.5996 25.6001 38.4004 24 38.4004C22.4001 38.4004 21.6001 37.5996 21.6001 36L21.6001 12C21.6001 10.4004 22.4001 9.59961 24 9.59961C25.6001 9.59961 26.4001 10.4004 26.4001 12Z" fill-rule="nonzero" fill="#FFFFFF"/>
	<path id="path" d="M24 48C10.7449 48 0 37.2559 0 24C0 10.7441 10.7449 0 24 0C37.2551 0 48 10.7441 48 24C48 37.2559 37.2551 48 24 48ZM24 43.1992C24.3142 43.1992 24.6282 43.1914 24.9421 43.1777C25.2559 43.1621 25.5693 43.1387 25.8818 43.1074C26.1946 43.0762 26.5063 43.0391 26.8171 42.9922C27.1279 42.9453 27.4375 42.8926 27.7458 42.832C28.054 42.7695 28.3604 42.7012 28.6653 42.625C28.97 42.5488 29.2727 42.4648 29.5735 42.373C29.8743 42.2812 30.1724 42.1836 30.4683 42.0781C30.7642 41.9727 31.0571 41.8594 31.3474 41.7383C31.6379 41.6191 31.925 41.4902 32.209 41.3574C32.4932 41.2227 32.7737 41.0801 33.0508 40.9336C33.3279 40.7852 33.6013 40.6309 33.8708 40.4688C34.1404 40.3066 34.4058 40.1387 34.667 39.9648C34.9282 39.7891 35.1851 39.6094 35.4375 39.4219C35.6897 39.2344 35.9375 39.041 36.1804 38.8418C36.4233 38.6426 36.6611 38.4375 36.894 38.2266C37.1267 38.0156 37.3542 37.7988 37.5764 37.5762C37.7986 37.3535 38.0151 37.127 38.2263 36.8945C38.4373 36.6602 38.6426 36.4238 38.8418 36.1797C39.0413 35.9375 39.2344 35.6895 39.4216 35.4375C39.6089 35.1855 39.7896 34.9277 39.9641 34.666C40.1387 34.4062 40.3069 34.1406 40.4685 33.8711C40.6299 33.6016 40.7847 33.3281 40.9329 33.0508C41.0811 32.7734 41.2222 32.4922 41.3567 32.209C41.491 31.9258 41.6182 31.6387 41.7385 31.3477C41.8586 31.0566 41.9717 30.7637 42.0776 30.4688C42.1836 30.1719 42.282 29.875 42.3733 29.5742C42.4644 29.2734 42.5483 28.9707 42.6245 28.666C42.7009 28.3613 42.7698 28.0547 42.8311 27.7461C42.8923 27.4375 42.946 27.1289 42.9922 26.8164C43.0383 26.5059 43.0767 26.1953 43.1077 25.8828C43.1384 25.5684 43.1614 25.2559 43.1768 24.9414C43.1924 24.6289 43.2 24.3145 43.2 24C43.2 23.6855 43.1924 23.3711 43.1768 23.0586C43.1614 22.7441 43.1384 22.4316 43.1077 22.1172C43.0767 21.8047 43.0383 21.4941 42.9922 21.1836C42.946 20.8711 42.8923 20.5625 42.8311 20.2539C42.7698 19.9453 42.7009 19.6387 42.6245 19.334C42.5483 19.0293 42.4644 18.7266 42.3733 18.4258C42.282 18.125 42.1836 17.8281 42.0776 17.5312C41.9717 17.2363 41.8586 16.9434 41.7385 16.6523C41.6182 16.3613 41.491 16.0742 41.3567 15.791C41.2222 15.5078 41.0811 15.2266 40.9329 14.9492C40.7847 14.6719 40.6299 14.3984 40.4685 14.1289C40.3069 13.8594 40.1387 13.5938 39.9641 13.334C39.7896 13.0723 39.6089 12.8145 39.4216 12.5625C39.2344 12.3105 39.0413 12.0625 38.8418 11.8203C38.6426 11.5762 38.4373 11.3398 38.2263 11.1055C38.0151 10.873 37.7986 10.6465 37.5764 10.4238C37.3542 10.2012 37.1267 9.98438 36.894 9.77344C36.6611 9.5625 36.4233 9.35742 36.1804 9.1582C35.9375 8.95898 35.6897 8.76562 35.4375 8.57812C35.1851 8.39062 34.9282 8.21094 34.667 8.03516C34.4058 7.86133 34.1404 7.69336 33.8708 7.53125C33.6013 7.36914 33.3279 7.21484 33.0508 7.06641C32.7737 6.91992 32.4932 6.77734 32.209 6.64258C31.925 6.50977 31.6379 6.38086 31.3474 6.26172C31.0571 6.14062 30.7642 6.02734 30.4683 5.92188C30.1724 5.81641 29.8743 5.71875 29.5735 5.62695C29.2727 5.53516 28.97 5.45117 28.6653 5.375C28.3604 5.29883 28.054 5.23047 27.7458 5.16797C27.4375 5.10742 27.1279 5.05469 26.8171 5.00781C26.5063 4.96094 26.1946 4.92383 25.8818 4.89258C25.5693 4.86133 25.2559 4.83789 24.9421 4.82227C24.6282 4.80859 24.3142 4.80078 24 4.80078C23.6858 4.80078 23.3718 4.80859 23.0579 4.82227C22.7441 4.83789 22.4307 4.86133 22.1182 4.89258C21.8054 4.92383 21.4937 4.96094 21.1829 5.00781C20.8721 5.05469 20.5625 5.10742 20.2542 5.16797C19.946 5.23047 19.6396 5.29883 19.3347 5.375C19.03 5.45117 18.7273 5.53516 18.4265 5.62695C18.1257 5.71875 17.8276 5.81641 17.5317 5.92188C17.2358 6.02734 16.9429 6.14062 16.6526 6.26172C16.3621 6.38086 16.075 6.50977 15.791 6.64258C15.5068 6.77734 15.2263 6.91992 14.9492 7.06641C14.6721 7.21484 14.3987 7.36914 14.1292 7.53125C13.8596 7.69336 13.5942 7.86133 13.333 8.03516C13.0718 8.21094 12.8149 8.39062 12.5625 8.57812C12.3103 8.76562 12.0625 8.95898 11.8196 9.1582C11.5767 9.35742 11.3389 9.5625 11.106 9.77344C10.8733 9.98438 10.6458 10.2012 10.4236 10.4238C10.2014 10.6465 9.98486 10.873 9.77368 11.1055C9.56274 11.3398 9.35742 11.5762 9.1582 11.8203C8.95874 12.0625 8.76562 12.3105 8.57837 12.5625C8.39111 12.8145 8.21045 13.0723 8.03589 13.334C7.86133 13.5938 7.69312 13.8594 7.53149 14.1289C7.37012 14.3984 7.21533 14.6719 7.06714 14.9492C6.91895 15.2266 6.77783 15.5078 6.64331 15.791C6.50903 16.0742 6.38184 16.3613 6.26147 16.6523C6.14136 16.9434 6.02832 17.2363 5.92236 17.5312C5.81641 17.8281 5.71802 18.125 5.62671 18.4258C5.53564 18.7266 5.45166 19.0293 5.37549 19.334C5.29907 19.6387 5.23022 19.9453 5.16895 20.2539C5.10767 20.5625 5.05396 20.8711 5.00781 21.1836C4.96167 21.4941 4.92334 21.8047 4.89233 22.1172C4.86157 22.4316 4.83862 22.7441 4.82324 23.0586C4.80762 23.3711 4.80005 23.6855 4.80005 24C4.80005 24.3145 4.80762 24.6289 4.82324 24.9414C4.83862 25.2559 4.86157 25.5684 4.89233 25.8828C4.92334 26.1953 4.96167 26.5059 5.00781 26.8164C5.05396 27.1289 5.10767 27.4375 5.16895 27.7461C5.23022 28.0547 5.29907 28.3613 5.37549 28.666C5.45166 28.9707 5.53564 29.2734 5.62671 29.5742C5.71802 29.875 5.81641 30.1719 5.92236 30.4688C6.02832 30.7637 6.14136 31.0566 6.26147 31.3477C6.38184 31.6387 6.50903 31.9258 6.64331 32.209C6.77783 32.4922 6.91895 32.7734 7.06714 33.0508C7.21533 33.3281 7.37012 33.6016 7.53149 33.8711C7.69312 34.1406 7.86133 34.4062 8.03589 34.666C8.21045 34.9277 8.39111 35.1855 8.57837 35.4375C8.76562 35.6895 8.95874 35.9375 9.1582 36.1797C9.35742 36.4238 9.56274 36.6602 9.77368 36.8945C9.98486 37.127 10.2014 37.3535 10.4236 37.5762C10.6458 37.7988 10.8733 38.0156 11.106 38.2266C11.3389 38.4375 11.5767 38.6426 11.8196 38.8418C12.0625 39.041 12.3103 39.2344 12.5625 39.4219C12.8149 39.6094 13.0718 39.7891 13.333 39.9648C13.5942 40.1387 13.8596 40.3066 14.1292 40.4688C14.3987 40.6309 14.6721 40.7852 14.9492 40.9336C15.2263 41.0801 15.5068 41.2227 15.791 41.3574C16.075 41.4902 16.3621 41.6191 16.6526 41.7383C16.9429 41.8594 17.2358 41.9727 17.5317 42.0781C17.8276 42.1836 18.1257 42.2812 18.4265 42.373C18.7273 42.4648 19.03 42.5488 19.3347 42.625C19.6396 42.7012 19.946 42.7695 20.2542 42.832C20.5625 42.8926 20.8721 42.9453 21.1829 42.9922C21.4937 43.0391 21.8054 43.0762 22.1182 43.1074C22.4307 43.1387 22.7441 43.1621 23.0579 43.1777C23.3718 43.1914 23.6858 43.1992 24 43.1992Z" fill-rule="nonzero" fill="#FFFFFF"/>
</svg>
