<svg width="32.000000" height="32.000000" viewBox="0 0 32 32" fill="none" xmlns="http://www.w3.org/2000/svg" xmlns:xlink="http://www.w3.org/1999/xlink">
	<desc>
			Created with Pixso.
	</desc>
	<defs>
		<clipPath id="clip185_7">
			<rect id="icon_施工流程" width="32.000000" height="32.000000" fill="white"/>
		</clipPath>
	</defs>
	<g clip-path="url(#clip185_7)">
		<path id="path" d="M27.1375 8.51953C26.975 8.15039 26.6375 7.89453 26.2438 7.83203C25.85 7.76953 25.45 7.91797 25.1875 8.21875L22.5 11.3066L20.6938 11.3066L20.6938 9.50586L23.8313 6.84961C24.1375 6.58789 24.2875 6.1875 24.2313 5.79297C24.175 5.39453 23.9188 5.05664 23.55 4.88672C22.6562 4.48047 21.6938 4.28125 20.6875 4.28125C16.8125 4.28125 13.6562 7.4375 13.6562 11.3125C13.6562 11.6934 13.6938 12.0684 13.7563 12.4375L5.48125 20.7129C3.88125 22.3125 3.88125 24.9121 5.48125 26.5195C7.0875 28.125 9.6875 28.1191 11.2875 26.5195L19.55 18.25C19.925 18.3125 20.3 18.3496 20.6875 18.3496C24.5625 18.3496 27.7188 15.1934 27.7188 11.3184C27.7188 10.332 27.525 9.38672 27.1375 8.51953ZM9.63125 24.8555C8.94375 25.543 7.83125 25.543 7.14375 24.8555C6.45625 24.168 6.45625 23.0566 7.14375 22.3691L14.625 14.8809C14.925 15.3867 15.2875 15.8555 15.7125 16.2812C16.1375 16.707 16.6062 17.0684 17.1062 17.3691L9.63125 24.8555ZM20.6875 16C19.4375 16 18.2562 15.5117 17.375 14.625C16.4875 13.7383 16 12.5625 16 11.3125C16 8.80664 17.9813 6.75 20.4563 6.63086L18.7562 8.07422C18.4937 8.30078 18.3438 8.625 18.3438 8.96875L18.3438 12.4883C18.3438 12.8008 18.4688 13.0938 18.6875 13.3184C18.9062 13.5371 19.2062 13.6621 19.5187 13.6621L23.0312 13.6621C23.3687 13.6621 23.6937 13.5117 23.9125 13.2617L25.3625 11.5938C25.225 14.043 23.1813 16 20.6875 16Z" fill-rule="nonzero" fill="#FFFFFF"/>
	</g>
</svg>
