<svg width="32.000000" height="32.000000" viewBox="0 0 32 32" fill="none" xmlns="http://www.w3.org/2000/svg" xmlns:xlink="http://www.w3.org/1999/xlink">
	<desc>
			Created with Pixso.
	</desc>
	<defs>
		<clipPath id="clip173_7">
			<rect id="icon_组塔器具" width="32.000000" height="32.000000" fill="white"/>
		</clipPath>
	</defs>
	<g clip-path="url(#clip173_7)">
		<path id="path" d="M19.5647 0L19.7439 1.09375L20.2048 4.60742L25.9329 4.60742L25.8752 7.07227L21.1199 9.44727L21.7727 12.8008L29.1584 12.8008L29.1584 15.9746L28.4351 16.3398L22.7136 19.1934L24.0833 27.8848L28.7039 27.8848L28.7039 32L3.30225 32L3.30225 27.8848L8.38403 27.8848L9.49756 19.2324L2.84155 15.084L2.84155 12.8008L10.688 12.8008L11.0911 9.50391L6.13745 7.07812L6.07349 4.60742L12.0127 4.60742L12.4736 1.09375L12.6462 0L19.5647 0ZM20.2625 20.3848L13.9263 23.3145L20.8577 23.3145L20.2625 20.3848ZM20.8511 25.1465L13.4656 27.8906L21.7791 27.8906L21.0176 24.9727L20.8511 25.1465ZM10.6943 27.4297L18.5471 24.2305L11.1487 24.2305L10.6943 27.4297ZM11.5457 22.8672L19.0015 19.1992L12.0767 19.1992L11.5457 22.8672ZM20.3904 5.94531L20.8511 7.77539L24.5439 5.94531L20.3904 5.94531ZM11.616 7.76953L11.616 5.94531L7.9231 5.94531L11.616 7.76953ZM14.8479 4.57031L17.6191 4.57031L17.6191 2.74609L14.8479 2.74609L14.8479 4.57031ZM18.0798 9.59961L13.9263 9.59961L13.4656 12.8008L19.0081 12.8008L18.0798 9.59961ZM17.6191 5.94531L14.8479 5.94531L14.3872 8.23047L18.1184 8.24414L17.6191 5.94531ZM22.2336 14.1699L22.2336 17.3691L26.8542 14.1699L22.2336 14.1699ZM10.2271 17.3691L10.2271 14.1699L5.61279 14.1699L10.2271 17.3691ZM19.4624 14.1699L12.9983 14.1699L12.5376 17.8242L19.9231 17.8242C19.9231 17.8301 19.4624 14.1699 19.4624 14.1699Z" fill-rule="nonzero" fill="#FFFFFF"/>
	</g>
</svg>
