<svg width="32.000000" height="32.000000" viewBox="0 0 32 32" fill="none" xmlns="http://www.w3.org/2000/svg" xmlns:xlink="http://www.w3.org/1999/xlink">
	<desc>
			Created with Pixso.
	</desc>
	<defs>
		<clipPath id="clip145_224">
			<rect id="icon_牵张场地选择" width="32.000000" height="32.000000" fill="white"/>
		</clipPath>
	</defs>
	<g clip-path="url(#clip145_224)">
		<path id="path" d="M26.8185 25.9023L26.8185 24.6309L29.3634 24.6309C29.3904 24.6309 29.4172 24.6289 29.4439 24.625C29.4706 24.623 29.497 24.6172 29.523 24.6094C29.5491 24.6035 29.5746 24.5938 29.5995 24.584C29.6245 24.5742 29.6487 24.5625 29.6722 24.5488C29.6956 24.5352 29.7182 24.5215 29.7398 24.5059C29.7614 24.4883 29.7819 24.4707 29.8013 24.4531C29.8207 24.4336 29.8388 24.4141 29.8557 24.3926C29.8726 24.373 29.888 24.3496 29.9021 24.3281C29.9162 24.3047 29.9287 24.2812 29.9398 24.2559C29.9509 24.2305 29.9603 24.207 29.9682 24.1797C29.976 24.1543 29.9822 24.1289 29.9868 24.1016C29.9913 24.0762 29.9941 24.0488 29.9953 24.0215C29.9964 23.9941 29.9958 23.9688 29.9936 23.9414C29.9913 23.9141 29.9873 23.8867 29.9817 23.8613C29.976 23.834 29.9687 23.8086 29.9598 23.7832C29.9509 23.7578 29.9403 23.7324 29.9283 23.709L28.7268 21.2969L28.7268 15.2422L29.9298 12.8301C29.9419 12.8066 29.9524 12.7812 29.9613 12.7559C29.9703 12.7305 29.9776 12.7051 29.9832 12.6777C29.9889 12.6523 29.9929 12.625 29.9951 12.5996C29.9974 12.5723 29.998 12.5449 29.9968 12.5176C29.9956 12.4902 29.9928 12.4648 29.9882 12.4375C29.9836 12.4102 29.9774 12.3848 29.9695 12.3594C29.9616 12.334 29.9521 12.3086 29.9411 12.2832C29.93 12.2578 29.9173 12.2344 29.9032 12.2129C29.8891 12.1895 29.8736 12.166 29.8567 12.1465C29.8397 12.125 29.8216 12.1055 29.8021 12.0859C29.7827 12.0684 29.7621 12.0508 29.7405 12.0352C29.7188 12.0176 29.6962 12.0039 29.6727 11.9902C29.6492 11.9766 29.6249 11.9648 29.5999 11.9551C29.5749 11.9453 29.5493 11.9375 29.5233 11.9297C29.4972 11.9219 29.4707 11.918 29.444 11.9141C29.4173 11.9102 29.3904 11.9082 29.3634 11.9082L26.8185 11.9082L26.8185 10.6367L25.5469 10.6367L25.5469 11.9082L23.002 11.9082C22.9751 11.9082 22.9482 11.9102 22.9215 11.9141C22.8948 11.918 22.8685 11.9238 22.8424 11.9297C22.8164 11.9375 22.7909 11.9453 22.7659 11.9551C22.741 11.9668 22.7167 11.9766 22.6933 11.9902C22.6698 12.0039 22.6473 12.0195 22.6257 12.0352C22.604 12.0508 22.5836 12.0684 22.5641 12.0879C22.5448 12.1055 22.5266 12.125 22.5098 12.1465C22.4929 12.168 22.4774 12.1895 22.4633 12.2129C22.4492 12.2363 22.4367 12.2598 22.4256 12.2832C22.4146 12.3086 22.4051 12.334 22.3972 12.3594C22.3894 12.3848 22.3832 12.4121 22.3787 12.4375C22.3741 12.4648 22.3713 12.4922 22.3701 12.5176C22.369 12.5449 22.3696 12.5723 22.3719 12.5996C22.3741 12.625 22.3781 12.6523 22.3837 12.6797C22.3894 12.7051 22.3967 12.7305 22.4056 12.7559C22.4146 12.7812 22.4251 12.8066 22.4372 12.8301L23.6386 15.2441L23.6386 20.8164L16.2911 20.8164C16.4453 20.7285 16.5969 20.6348 16.7459 20.5371C16.8949 20.4414 17.0412 20.3398 17.1845 20.2344C17.3279 20.1289 17.4682 20.0215 17.6055 19.9082C17.7428 19.7949 17.8768 19.6777 18.0076 19.5566C18.1383 19.4375 18.2656 19.3125 18.3894 19.1855C18.5132 19.0566 18.6334 18.9258 18.7499 18.793C18.8663 18.6582 18.979 18.5195 19.0878 18.3789C19.1966 18.2383 19.3014 18.0957 19.4022 17.9492C19.503 17.8027 19.5996 17.6523 19.692 17.502C19.7844 17.3496 19.8726 17.1953 19.9564 17.0391C20.0402 16.8809 20.1195 16.7227 20.1944 16.5605C20.2694 16.4004 20.3397 16.2363 20.4055 16.0723C20.4713 15.9062 20.5324 15.7402 20.5889 15.5703C20.6453 15.4023 20.697 15.2324 20.744 15.0605C20.7909 14.8887 20.8331 14.7168 20.8704 14.543C20.9077 14.3691 20.9401 14.1934 20.9676 14.0176C20.9951 13.8418 21.0177 13.666 21.0354 13.4902C21.053 13.3125 21.0658 13.1348 21.0735 12.957C21.0813 12.7793 21.0841 12.6016 21.0819 12.4238C21.0797 12.2461 21.0726 12.0684 21.0605 11.8906C21.0483 11.7148 21.0313 11.5371 21.0093 11.3613C20.9873 11.1836 20.9604 11.0078 20.9286 10.834C20.8967 10.6582 20.86 10.4844 20.8185 10.3125C20.777 10.1387 20.7306 9.9668 20.6795 9.79688C20.6283 9.62695 20.5725 9.45898 20.5119 9.29102C20.4513 9.12305 20.3861 8.95898 20.3163 8.79492C20.2465 8.63086 20.1722 8.4707 20.0933 8.31055C20.0145 8.15039 19.9312 7.99414 19.8436 7.83984C19.756 7.68555 19.6641 7.5332 19.568 7.38281C19.4719 7.23242 19.3716 7.08594 19.2673 6.94336C19.1629 6.79883 19.0547 6.6582 18.9425 6.51953C18.8302 6.38086 18.7143 6.24805 18.5945 6.11523C18.4748 5.98438 18.3514 5.85547 18.2245 5.73242C18.0976 5.60742 17.9673 5.48633 17.8337 5.36914C17.7 5.25195 17.5632 5.13867 17.4232 5.0293C17.2832 4.91992 17.1402 4.8125 16.9943 4.71094C16.8484 4.60938 16.6997 4.51172 16.5484 4.41992C16.397 4.32617 16.2432 4.23633 16.0868 4.15234C15.9305 4.06836 15.7719 3.98828 15.6111 3.91211C15.4503 3.83594 15.2874 3.76367 15.1226 3.69727C14.9578 3.63086 14.7913 3.56836 14.623 3.51172C14.4547 3.45312 14.285 3.40039 14.1137 3.35352C13.9425 3.30469 13.7701 3.26172 13.5964 3.22461C13.4228 3.18555 13.2482 3.15234 13.0727 3.12305C12.8972 3.0957 12.721 3.07227 12.5442 3.05273C12.3674 3.0332 12.1902 3.01953 12.0126 3.01172C11.835 3.00195 11.6573 3 11.4795 3C11.3017 3.00195 11.124 3.00781 10.9466 3.01758C10.7691 3.0293 10.5921 3.04492 10.4155 3.06641C10.2389 3.08789 10.0631 3.11328 9.88797 3.14453C9.71284 3.17578 9.53873 3.21094 9.36559 3.25195C9.19246 3.29102 9.0206 3.33789 8.85001 3.38672C8.67941 3.4375 8.51036 3.49219 8.34283 3.55273C8.17531 3.61133 8.00958 3.67578 7.84566 3.74414C7.68172 3.81445 7.51984 3.88672 7.36002 3.96484C7.20018 4.04297 7.04265 4.125 6.88744 4.21289C6.73221 4.29883 6.57953 4.39062 6.42938 4.48438C6.27925 4.58008 6.13188 4.67969 5.9873 4.7832C5.84271 4.88672 5.70114 4.99414 5.56256 5.10547C5.424 5.2168 5.28864 5.33203 5.15651 5.45117C5.02437 5.57031 4.89566 5.69336 4.77039 5.81836C4.64511 5.94531 4.52345 6.07422 4.40541 6.20703C4.28738 6.33984 4.17316 6.47656 4.06273 6.61523C3.9523 6.75586 3.84587 6.89844 3.74341 7.04297C3.64095 7.18945 3.54262 7.33594 3.44843 7.48828C3.35425 7.63867 3.26434 7.79102 3.17874 7.94727C3.09312 8.10352 3.01193 8.26172 2.93517 8.42188C2.85838 8.58203 2.78615 8.74414 2.71846 8.9082C2.65077 9.07422 2.58772 9.24023 2.52933 9.4082C2.47092 9.57617 2.41725 9.74414 2.36833 9.91602C2.3194 10.0859 2.27528 10.2598 2.23598 10.4316C2.19669 10.6055 2.16225 10.7793 2.13271 10.9551C2.10315 11.1309 2.07852 11.3066 2.05881 11.4844C2.03909 11.6602 2.02434 11.8379 2.01453 12.0156C2.00471 12.1934 1.99988 12.3711 2 12.5488C2.00012 12.7266 2.00522 12.9043 2.01527 13.0801C2.02534 13.2578 2.04034 13.4355 2.0603 13.6133C2.08026 13.7891 2.10515 13.9648 2.13495 14.1406C2.16475 14.3164 2.19942 14.4902 2.23897 14.6641C2.27852 14.8359 2.32288 15.0098 2.37204 15.1797C2.4212 15.3496 2.47511 15.5195 2.53375 15.6875C2.59239 15.8555 2.65567 16.0215 2.7236 16.1855C2.79152 16.3496 2.86398 16.5137 2.94098 16.6738C3.01797 16.834 3.0994 16.9922 3.18523 17.1465C3.27106 17.3027 3.36118 17.4551 3.45557 17.6074C3.54997 17.7578 3.6485 17.9043 3.75117 18.0508C3.85384 18.1953 3.96048 18.3379 4.07111 18.4766C4.18172 18.6172 4.29614 18.752 4.41437 18.8848C4.53258 19.0176 4.65442 19.1465 4.77988 19.2734C4.90533 19.3984 5.03421 19.5215 5.16652 19.6406C5.29881 19.7598 5.43434 19.875 5.57306 19.9863C5.71179 20.0977 5.85353 20.2031 5.99826 20.3066C6.14299 20.4102 6.29048 20.5098 6.44075 20.6055C6.59103 20.6992 6.74384 20.791 6.89919 20.877C7.05453 20.9629 7.21217 21.0449 7.37212 21.123C7.53206 21.2012 7.69405 21.2734 7.85808 21.3438L6.61694 25.9023L2.01115 25.9023L2.01115 29.7188L30 29.7188L30 25.9023L26.8185 25.9023ZM25.1774 25.9023L16.6132 25.9023L15.5125 22.4004L22.8051 22.4004L22.0174 23.707C22.0052 23.7324 21.9946 23.7559 21.9856 23.7812C21.9765 23.8066 21.9692 23.834 21.9635 23.8594C21.9577 23.8867 21.9537 23.9121 21.9514 23.9395C21.949 23.9668 21.9484 23.9941 21.9495 24.0215C21.9506 24.0469 21.9534 24.0742 21.9579 24.1016C21.9624 24.127 21.9686 24.1543 21.9764 24.1797C21.9843 24.2051 21.9937 24.2305 22.0048 24.2559C22.0159 24.2793 22.0284 24.3047 22.0425 24.3262C22.0566 24.3496 22.0721 24.3711 22.089 24.3926C22.1059 24.4141 22.124 24.4336 22.1435 24.4531C22.1629 24.4707 22.1834 24.4883 22.2051 24.5059C22.2267 24.5215 22.2493 24.5352 22.2728 24.5488C22.2963 24.5625 22.3206 24.5742 22.3456 24.584C22.3706 24.5938 22.3962 24.6035 22.4223 24.6094C22.4484 24.6172 22.4748 24.623 22.5016 24.625C22.5283 24.6289 22.5552 24.6309 22.5822 24.6309L25.1774 24.6309L25.1774 25.9023ZM24.0325 23.3574L24.6691 22.0859L27.6964 22.0859L28.3329 23.3574L24.0325 23.3574ZM24.9103 16.4512L26.3361 17.6328L24.9103 17.6328L24.9103 16.4512ZM27.4551 16.9082L26.0308 15.7246L27.4551 15.7246L27.4551 16.9082ZM27.4551 18.9062L27.4551 20.0898L26.0308 18.9062L27.4551 18.9062ZM28.3329 13.1816L27.6964 14.4531L24.6691 14.4531L24.0325 13.1816L28.3329 13.1816ZM24.9103 19.6309L26.3361 20.8145L24.9103 20.8145L24.9103 19.6309ZM11.5525 11.2734C11.636 11.2734 11.7187 11.2812 11.8006 11.2988C11.8824 11.3145 11.962 11.3379 12.0391 11.3711C12.1162 11.4023 12.1895 11.4414 12.259 11.4883C12.3284 11.5352 12.3926 11.5879 12.4517 11.6465C12.5107 11.7051 12.5634 11.7695 12.6098 11.8379C12.6562 11.9082 12.6954 11.9805 12.7273 12.0586C12.7593 12.1348 12.7834 12.2148 12.7997 12.2969C12.816 12.3789 12.8241 12.4609 12.8241 12.5449C12.8241 12.6289 12.816 12.7109 12.7997 12.793C12.7834 12.875 12.7593 12.9551 12.7273 13.0312C12.6954 13.1094 12.6562 13.1816 12.6098 13.252C12.5634 13.3203 12.5107 13.3848 12.4517 13.4453C12.3926 13.5039 12.3284 13.5566 12.259 13.6016C12.1895 13.6484 12.1162 13.6875 12.0391 13.7207C11.962 13.752 11.8824 13.7754 11.8006 13.793C11.7187 13.8086 11.636 13.8164 11.5525 13.8164C11.469 13.8164 11.3863 13.8086 11.3044 13.793C11.2225 13.7754 11.143 13.752 11.0658 13.7207C10.9887 13.6875 10.9154 13.6484 10.846 13.6016C10.7765 13.5566 10.7123 13.5039 10.6533 13.4453C10.5942 13.3848 10.5415 13.3203 10.4951 13.252C10.4487 13.1816 10.4095 13.1094 10.3776 13.0312C10.3456 12.9551 10.3215 12.875 10.3052 12.793C10.2889 12.7109 10.2808 12.6289 10.2808 12.5449C10.2808 12.4609 10.2889 12.3789 10.3052 12.2969C10.3215 12.2148 10.3456 12.1348 10.3776 12.0586C10.4095 11.9805 10.4487 11.9082 10.4951 11.8379C10.5415 11.7695 10.5942 11.7051 10.6533 11.6465C10.7123 11.5879 10.7765 11.5352 10.846 11.4883C10.9154 11.4414 10.9887 11.4023 11.0658 11.3711C11.143 11.3379 11.2225 11.3145 11.3044 11.2988C11.3863 11.2812 11.469 11.2734 11.5525 11.2734ZM12.1891 15L13.6699 20.375C13.1764 20.5195 12.6736 20.6152 12.1616 20.6602L12.1891 15ZM10.9174 15.0312L10.9174 20.627C10.4042 20.5898 9.89938 20.5039 9.403 20.3672L10.9174 14.9941L10.9174 15.0312ZM15.1751 19.8633L13.3401 14.3945C13.6714 14.0605 13.9019 13.6406 14.0088 13.1816L19.642 13.1816C19.3977 16.2148 17.9627 18.6133 15.1751 19.8379L15.1751 19.8633ZM14.0088 11.9102C13.9804 11.8008 13.9449 11.6953 13.9024 11.5898C13.8599 11.4863 13.8106 11.3848 13.7547 11.2871C13.6987 11.1895 13.6366 11.0957 13.5682 11.0059C13.4998 10.916 13.4258 10.832 13.3462 10.752C13.2666 10.6719 13.1821 10.5996 13.0926 10.5293C13.0032 10.4609 12.9096 10.4004 12.8119 10.3438C12.7142 10.2871 12.6132 10.2383 12.5089 10.1953C12.4047 10.1523 12.298 10.1172 12.1891 10.0879L12.1891 4.48438C16.2605 4.78516 19.2878 7.83789 19.6053 11.9082L14.0088 11.9102ZM10.9174 4.53906L10.9174 10.0879C10.8085 10.1172 10.702 10.1523 10.5978 10.1953C10.4936 10.2383 10.3927 10.2871 10.295 10.3438C10.1974 10.3984 10.1038 10.4609 10.0144 10.5293C9.925 10.5977 9.8405 10.6719 9.76089 10.752C9.68129 10.8301 9.60728 10.916 9.53888 11.0039C9.47047 11.0938 9.40828 11.1875 9.35228 11.2852C9.29628 11.3828 9.24696 11.4824 9.20435 11.5879C9.16173 11.6914 9.12617 11.7988 9.09767 11.9062L3.53014 11.9062C3.84615 7.84766 6.85814 4.85742 10.9174 4.53906ZM3.5744 13.1797L9.09767 13.1797C9.20642 13.627 9.41862 14.0156 9.73427 14.3496L8.06264 19.7852C5.30711 18.5469 3.81104 16.1914 3.5744 13.1797ZM9.7816 21.748C10.5296 22.0156 10.606 22.0156 11.5525 22.084L13.6592 22.084L14.7034 25.9023L8.6748 25.9023L9.7816 21.748ZM28.7268 27.9355L3.28435 27.9355L3.28435 27.1738L28.7268 27.1738L28.7268 27.9355Z" fill-rule="nonzero" fill="#FFFFFF"/>
	</g>
</svg>
