<svg width="20.000000" height="20.000000" viewBox="0 0 20 20" fill="none" xmlns="http://www.w3.org/2000/svg" xmlns:xlink="http://www.w3.org/1999/xlink">
	<desc>
			Created with Pixso.
	</desc>
	<defs/>
	<g opacity="0.500000">
		<path id="icon_search" d="M16.6955 15.6348C18.1506 13.9297 18.976 11.7656 18.976 9.48828C18.9762 4.24805 14.7286 0 9.48825 0C4.24789 0 0 4.24805 0 9.48828C0 14.7285 4.24789 18.9766 9.48799 18.9766C10.4322 18.9766 11.3559 18.8398 12.2591 18.5645C12.3059 18.5508 12.3509 18.5312 12.394 18.5078C12.4371 18.4844 12.4775 18.457 12.5153 18.4258C12.553 18.3945 12.5873 18.3594 12.6183 18.3223C12.6492 18.2832 12.6761 18.2422 12.699 18.1992C12.722 18.1562 12.7405 18.1113 12.7545 18.0645C12.7686 18.0176 12.778 17.9688 12.7826 17.9199C12.7873 17.8711 12.7872 17.8223 12.7822 17.7734C12.7773 17.7246 12.7677 17.6777 12.7534 17.6309C12.7391 17.584 12.7204 17.5391 12.6972 17.4941C12.674 17.4512 12.6469 17.4102 12.6158 17.373C12.5847 17.3359 12.5502 17.3008 12.5123 17.2695C12.4743 17.2383 12.4338 17.2109 12.3906 17.1875C12.3473 17.1641 12.3023 17.1465 12.2553 17.1309C12.2084 17.1172 12.1606 17.1074 12.1118 17.1035C12.0629 17.0977 12.0141 17.0977 11.9653 17.1016C11.9164 17.1074 11.8685 17.1152 11.8215 17.1309C11.0609 17.3613 10.2831 17.4766 9.48799 17.4766C5.07657 17.4766 1.50032 13.9004 1.50032 9.48828C1.50032 5.07617 5.07657 1.5 9.48799 1.5C13.8997 1.5 17.4762 5.07617 17.4762 9.48828C17.4762 11.5801 16.6468 13.5605 15.1989 15.0508C15.1597 15.0918 15.1246 15.1367 15.0939 15.1836C15.0632 15.2305 15.0373 15.2793 15.0163 15.332C14.9953 15.3848 14.9796 15.4395 14.9691 15.4941C14.9586 15.5488 14.9536 15.6055 14.954 15.6621C14.9544 15.7188 14.9603 15.7734 14.9716 15.8301C14.9829 15.8848 14.9994 15.9375 15.0212 15.9902C15.043 16.043 15.0696 16.0918 15.101 16.1387C15.1324 16.1855 15.1681 16.2285 15.2079 16.2695L18.7237 19.7852C18.7586 19.8184 18.7965 19.8496 18.8375 19.877C18.8784 19.9023 18.9216 19.9258 18.9669 19.9453C19.0123 19.9629 19.0591 19.9766 19.1072 19.9863C19.1553 19.9961 19.2038 20 19.2528 20C19.3018 20 19.3503 19.9941 19.3984 19.9844C19.4464 19.9746 19.493 19.9609 19.5383 19.9414C19.5835 19.9238 19.6265 19.9004 19.6672 19.873C19.7079 19.8457 19.7456 19.8145 19.7802 19.7793C19.8149 19.7461 19.8458 19.707 19.8731 19.668C19.9004 19.627 19.9234 19.584 19.9423 19.5391C19.9611 19.4922 19.9754 19.4473 19.9851 19.3984C19.9948 19.3496 19.9998 19.3027 20 19.252C20.0002 19.2031 19.9957 19.1562 19.9863 19.1074C19.977 19.0586 19.9632 19.0117 19.9447 18.9668C19.9262 18.9219 19.9035 18.8789 19.8766 18.8379C19.8497 18.7969 19.819 18.7578 19.7847 18.7246L16.6955 15.6348Z" fill-rule="nonzero" fill="#ffffff"/>
	</g>
</svg>
