<svg width="64.000000" height="64.000000" viewBox="0 0 64 64" fill="none" xmlns="http://www.w3.org/2000/svg" xmlns:xlink="http://www.w3.org/1999/xlink">
	<desc>
			Created with Pixso.
	</desc>
	<defs>
		<clipPath id="clip145_181">
			<rect id="logo" width="64.000000" height="64.000000" fill="white"/>
		</clipPath>
	</defs>
	<g clip-path="url(#clip145_181)">
		<path id="path" d="M24.715 45.5156C24.5338 45.9961 24.8775 46.5215 25.3838 46.5215L27.8087 46.5215C28.0525 46.5215 28.2775 46.3965 28.4088 46.1836L38.9525 29.3086C39.2587 28.8086 38.915 28.166 38.3463 28.166L33.5963 28.166C33.0775 28.166 32.7337 27.6211 32.94 27.1348L35.9212 20.1094C36.1275 19.6211 35.7838 19.0781 35.265 19.0781L27.7462 19.0781C27.4587 19.0781 27.2025 19.2539 27.09 19.5215L21.0837 33.8789C20.8775 34.3652 21.2275 34.9102 21.74 34.9102L27.64 34.9102C28.14 34.9102 28.49 35.4277 28.3087 35.9102L24.715 45.5156ZM57.7719 49.0527L56.6094 49.0527L53.2656 42.5273C53.8844 41.6016 54.2469 40.4961 54.2469 39.3027C54.2469 36.1016 51.6469 33.502 48.4469 33.502C45.2469 33.502 42.6469 36.1016 42.6469 39.3027C42.6469 40.6152 43.0844 41.8281 43.8219 42.8027L40.3344 49.0527L39.1156 49.0527C37.8719 49.0527 36.8656 50.0586 36.8656 51.3027L36.8656 57.6465C36.8656 58.8906 37.8719 59.8965 39.1156 59.8965L57.7719 59.8965C59.0156 59.8965 60.0219 58.8906 60.0219 57.6465L60.0219 51.3027C60.0219 50.0586 59.0156 49.0527 57.7719 49.0527ZM48.4469 38.002C49.1656 38.002 49.7469 38.584 49.7469 39.3027C49.7469 40.0215 49.1656 40.6016 48.4469 40.6016C47.7281 40.6016 47.1469 40.0215 47.1469 39.3027C47.1469 38.584 47.7281 38.002 48.4469 38.002ZM47.6844 45.1016L49.5281 45.1016L51.5531 49.0527L45.4906 49.0527L47.6844 45.1016ZM55.5219 55.3906L41.3656 55.3906L41.3656 53.5469L55.5219 53.5469L55.5219 55.3906ZM21.5713 51.4336C19.1525 49.6719 16.7838 47.4023 14.5462 44.6914C11.3838 40.8652 9.35251 37.209 8.69626 35.9648C8.70874 34.2773 8.73999 28.7598 8.70248 19.1152C17.1275 17.5664 26.5275 11.7656 30.04 9.43359C33.5587 11.7598 42.9525 17.5664 51.3837 19.1152C51.3631 24.4258 51.3631 28.4863 51.37 31.3457C53.36 32.1172 54.9794 33.6309 55.8894 35.5469C55.875 33.3711 55.8475 27.3477 55.8962 17.1777C55.9025 16.0156 55.0212 15.041 53.865 14.9277C45.565 14.1152 34.8025 7.20898 31.9525 5.29688C31.5338 4.74023 30.8712 4.39062 30.1462 4.39062L29.9337 4.39062C29.2087 4.39062 28.5462 4.74023 28.1275 5.29688C25.2775 7.20898 14.515 14.1152 6.215 14.9277C5.05875 15.041 4.17749 16.0156 4.18375 17.1777C4.24625 30.1914 4.18375 36.416 4.18375 36.4785C4.17749 36.8281 4.25876 37.1719 4.40875 37.4844C4.5025 37.6836 6.80249 42.3711 10.9962 47.4727C13.4837 50.4902 16.1275 53.041 18.865 55.0352C22.1462 57.4336 25.565 59.0469 29.0338 59.8398C29.3463 59.9785 29.6837 60.041 30.04 60.0273L30.1525 60.0273C30.465 60.0273 30.7712 59.959 31.0462 59.8398C32.0581 59.6094 33.0656 59.3066 34.0669 58.9375L34.0669 54.0723C32.7331 54.6855 31.3906 55.1465 30.0462 55.4531C27.19 54.7969 24.34 53.4473 21.5713 51.4336Z" fill-rule="nonzero" fill="#FFFFFF"/>
	</g>
</svg>
