<svg width="36.000000" height="36.000000" viewBox="0 0 36 36" fill="none" xmlns="http://www.w3.org/2000/svg" xmlns:xlink="http://www.w3.org/1999/xlink">
	<desc>
			Created with Pixso.
	</desc>
	<defs>
		<clipPath id="clip239_6">
			<rect id="添加" width="36.000000" height="36.000000" fill="white"/>
		</clipPath>
	</defs>
	<g clip-path="url(#clip239_6)">
		<path id="path" d="M9.5 16.3008L26.5 16.3008C27.6334 16.3008 28.2001 16.8672 28.2001 18C28.2001 19.1348 27.6334 19.7012 26.5 19.7012L9.5 19.7012C8.3667 19.7012 7.80005 19.1348 7.80005 18C7.80005 16.8672 8.3667 16.3008 9.5 16.3008Z" fill-rule="nonzero" fill="#FFFFFF"/>
		<path id="path" d="M19.7001 9.5L19.7001 26.5C19.7001 27.6348 19.1334 28.2012 18 28.2012C16.8667 28.2012 16.3 27.6348 16.3 26.5L16.3 9.5C16.3 8.36719 16.8667 7.80078 18 7.80078C19.1334 7.80078 19.7001 8.36719 19.7001 9.5Z" fill-rule="nonzero" fill="#FFFFFF"/>
		<path id="path" d="M18 35C8.61084 35 1 27.3887 1 18C1 8.61133 8.61084 1 18 1C27.3892 1 35 8.61133 35 18C35 27.3887 27.3892 35 18 35ZM18 31.5996C18.2225 31.5996 18.4451 31.5938 18.6674 31.584C18.8896 31.5723 19.1116 31.5566 19.333 31.5352C19.5546 31.5137 19.7754 31.4863 19.9955 31.4531C20.2157 31.4199 20.4349 31.3828 20.6532 31.3379C20.8716 31.2949 21.0886 31.2461 21.3046 31.1934C21.5204 31.1387 21.7349 31.0781 21.9479 31.0137C22.1609 30.9492 22.3722 30.8809 22.5817 30.8047C22.7913 30.7305 22.9989 30.6504 23.2045 30.5645C23.4102 30.4805 23.6135 30.3887 23.8147 30.2949C24.016 30.1992 24.2147 30.0996 24.411 29.9941C24.6073 29.8887 24.8009 29.7793 24.9918 29.666C25.1827 29.5508 25.3707 29.4316 25.5558 29.3086C25.7408 29.1836 25.9227 29.0566 26.1016 28.9238C26.2803 28.791 26.4557 28.6543 26.6278 28.5137C26.7998 28.3711 26.9683 28.2266 27.1332 28.0762C27.2981 27.9277 27.4592 27.7734 27.6167 27.6172C27.774 27.459 27.9275 27.2988 28.0769 27.1328C28.2264 26.9688 28.3717 26.7988 28.5129 26.627C28.6542 26.4551 28.791 26.2812 28.9236 26.1016C29.0562 25.9219 29.1843 25.7402 29.308 25.5566C29.4316 25.3711 29.5507 25.1836 29.6652 24.9922C29.7795 24.8008 29.8892 24.6074 29.9941 24.4102C30.099 24.2148 30.1991 24.0156 30.2943 23.8145C30.3894 23.6133 30.4796 23.4102 30.5647 23.2051C30.6499 22.998 30.73 22.791 30.8051 22.582C30.88 22.373 30.9498 22.1602 31.0144 21.9473C31.079 21.7344 31.1383 21.5195 31.1924 21.3047C31.2465 21.0879 31.2953 20.8711 31.3386 20.6523C31.3821 20.4355 31.4202 20.2148 31.4528 19.9961C31.4855 19.7754 31.5127 19.5547 31.5345 19.334C31.5563 19.1113 31.5728 18.8887 31.5836 18.668C31.5945 18.4453 31.6 18.2227 31.6 18C31.6 17.7773 31.5945 17.5547 31.5836 17.332C31.5728 17.1113 31.5563 16.8887 31.5345 16.666C31.5127 16.4453 31.4855 16.2246 31.4528 16.0039C31.4202 15.7852 31.3821 15.5645 31.3386 15.3477C31.2953 15.1289 31.2465 14.9121 31.1924 14.6953C31.1383 14.4805 31.079 14.2656 31.0144 14.0527C30.9498 13.8398 30.88 13.627 30.8051 13.418C30.73 13.209 30.6499 13.002 30.5648 12.7949C30.4796 12.5898 30.3894 12.3867 30.2943 12.1855C30.1991 11.9844 30.099 11.7852 29.9941 11.5898C29.8892 11.3926 29.7795 11.1992 29.6652 11.0078C29.5507 10.8164 29.4316 10.6289 29.308 10.4434C29.1843 10.2598 29.0562 10.0781 28.9236 9.89844C28.791 9.71875 28.6542 9.54492 28.5129 9.37305C28.3717 9.20117 28.2264 9.03125 28.0769 8.86719C27.9275 8.70117 27.774 8.54102 27.6167 8.38281C27.4592 8.22656 27.2981 8.07227 27.1332 7.92383C26.9683 7.77344 26.7998 7.62891 26.6278 7.48633C26.4557 7.3457 26.2803 7.20898 26.1016 7.07617C25.9227 6.94336 25.7408 6.81641 25.5558 6.69141C25.3707 6.56836 25.1827 6.44922 24.9918 6.33398C24.8009 6.2207 24.6073 6.11133 24.411 6.00586C24.2147 5.90039 24.016 5.80078 23.8147 5.70508C23.6135 5.61133 23.4102 5.51953 23.2045 5.43555C22.9989 5.34961 22.7913 5.26953 22.5817 5.19531C22.3722 5.11914 22.1609 5.05078 21.9479 4.98633C21.7349 4.92188 21.5204 4.86133 21.3046 4.80664C21.0886 4.75391 20.8716 4.70508 20.6532 4.66211C20.4349 4.61719 20.2157 4.58008 19.9955 4.54688C19.7754 4.51367 19.5546 4.48633 19.333 4.46484C19.1116 4.44336 18.8896 4.42773 18.6674 4.41602C18.4451 4.40625 18.2225 4.40039 18 4.40039C17.7775 4.40039 17.5549 4.40625 17.3326 4.41602C17.1104 4.42773 16.8884 4.44336 16.667 4.46484C16.4454 4.48633 16.2246 4.51367 16.0045 4.54688C15.7843 4.58008 15.5651 4.61719 15.3468 4.66211C15.1284 4.70508 14.9114 4.75391 14.6954 4.80664C14.4796 4.86133 14.2651 4.92188 14.0521 4.98633C13.8391 5.05078 13.6278 5.11914 13.4183 5.19531C13.2087 5.26953 13.0011 5.34961 12.7955 5.43555C12.5898 5.51953 12.3865 5.61133 12.1853 5.70508C11.984 5.80078 11.7853 5.90039 11.589 6.00586C11.3927 6.11133 11.1991 6.2207 11.0082 6.33398C10.8173 6.44922 10.6293 6.56836 10.4442 6.69141C10.2592 6.81641 10.0773 6.94336 9.89844 7.07617C9.71973 7.20898 9.54431 7.3457 9.37219 7.48633C9.2002 7.62891 9.03174 7.77344 8.86682 7.92383C8.7019 8.07227 8.54077 8.22656 8.3833 8.38281C8.22595 8.54102 8.07251 8.70117 7.9231 8.86719C7.77356 9.03125 7.6283 9.20117 7.48706 9.37305C7.34583 9.54492 7.20898 9.71875 7.07642 9.89844C6.94385 10.0781 6.81567 10.2598 6.69202 10.4434C6.56836 10.6289 6.44934 10.8164 6.33484 11.0078C6.22046 11.1992 6.11084 11.3926 6.00586 11.5898C5.901 11.7852 5.8009 11.9844 5.70569 12.1855C5.6106 12.3867 5.52039 12.5898 5.43518 12.7949C5.3501 13.002 5.27002 13.209 5.19495 13.418C5.12 13.627 5.05017 13.8398 4.9856 14.0527C4.92102 14.2656 4.86169 14.4805 4.80762 14.6953C4.75354 14.9121 4.70471 15.1289 4.66138 15.3477C4.61792 15.5645 4.57983 15.7852 4.54724 16.0039C4.51453 16.2246 4.4873 16.4453 4.46545 16.666C4.44373 16.8887 4.42725 17.1113 4.41638 17.332C4.40552 17.5547 4.40002 17.7773 4.40002 18C4.40002 18.2227 4.40552 18.4453 4.41638 18.668C4.42725 18.8887 4.44373 19.1113 4.46545 19.334C4.4873 19.5547 4.51453 19.7754 4.54724 19.9961C4.57983 20.2148 4.61792 20.4355 4.66138 20.6523C4.70471 20.8711 4.75354 21.0879 4.80762 21.3047C4.86169 21.5195 4.92102 21.7344 4.9856 21.9473C5.05017 22.1602 5.12 22.373 5.19495 22.582C5.27002 22.791 5.3501 22.998 5.43518 23.2051C5.52039 23.4102 5.6106 23.6133 5.70569 23.8145C5.8009 24.0156 5.901 24.2148 6.00586 24.4102C6.11084 24.6074 6.22046 24.8008 6.33484 24.9922C6.44934 25.1836 6.56836 25.3711 6.69202 25.5566C6.81567 25.7402 6.94385 25.9219 7.07642 26.1016C7.20898 26.2812 7.34583 26.4551 7.48706 26.627C7.6283 26.7988 7.77356 26.9688 7.9231 27.1328C8.07251 27.2988 8.22595 27.459 8.3833 27.6172C8.54077 27.7734 8.7019 27.9277 8.86682 28.0762C9.03174 28.2266 9.2002 28.3711 9.37219 28.5137C9.54431 28.6543 9.71973 28.791 9.89844 28.9238C10.0773 29.0566 10.2592 29.1836 10.4442 29.3086C10.6293 29.4316 10.8173 29.5508 11.0082 29.666C11.1991 29.7793 11.3927 29.8887 11.589 29.9941C11.7853 30.0996 11.984 30.1992 12.1853 30.2949C12.3865 30.3887 12.5898 30.4805 12.7955 30.5645C13.0011 30.6504 13.2087 30.7305 13.4183 30.8047C13.6278 30.8809 13.8391 30.9492 14.0521 31.0137C14.2651 31.0781 14.4796 31.1387 14.6954 31.1934C14.9114 31.2461 15.1284 31.2949 15.3468 31.3379C15.5651 31.3828 15.7843 31.4199 16.0045 31.4531C16.2246 31.4863 16.4454 31.5137 16.667 31.5352C16.8884 31.5566 17.1104 31.5723 17.3326 31.584C17.5549 31.5938 17.7775 31.5996 18 31.5996Z" fill-rule="nonzero" fill="#FFFFFF"/>
	</g>
</svg>
