<svg width="156.000000" height="156.000000" viewBox="0 0 156 156" fill="none" xmlns="http://www.w3.org/2000/svg" xmlns:xlink="http://www.w3.org/1999/xlink">
	<desc>
			Created with Pixso.
	</desc>
	<defs>
		<clipPath id="clip300_1702">
			<rect id="添加" width="48.000000" height="48.000000" transform="translate(54.000000 28.000000)" fill="white"/>
		</clipPath>
	</defs>
	<circle id="椭圆 94" r="72.000000" transform="matrix(1 0 0 1 78 78)" fill="#00BEC9"/>
	<circle id="椭圆 95" cx="78.000000" cy="78.000000" r="77.000000" stroke="#00BEC9" stroke-width="2.000000"/>
	<path id="添加" d="M52.1514 97.2314L52.1514 99.71L58.8135 99.71C57.0469 102.628 54.5684 105.115 51.2197 106.768C51.7207 107.269 52.4766 108.244 52.8369 108.824C56.9414 106.697 59.8242 103.489 61.8018 99.71L66.3018 99.71C68.2793 103.278 71.6279 106.548 75.082 108.244C75.4775 107.594 76.2686 106.662 76.8135 106.196C73.8252 104.896 70.9072 102.452 69.0352 99.71L76.2334 99.71L76.2334 97.2314L62.9531 97.2314C63.6035 95.6758 64.1396 94.0586 64.5352 92.4062L74.9766 92.4062L74.9766 89.9189L53.8037 89.9189L53.8037 92.4062L61.6963 92.4062C61.3359 94.0586 60.791 95.6758 60.1055 97.2314L52.1514 97.2314ZM52.5117 91.9404C51.29 90.6748 48.7676 89.1631 46.7549 88.2314L45.208 90.1387C47.2559 91.1406 49.7432 92.8018 50.9297 94.0234L52.5117 91.9404ZM51 101.222C49.708 100.105 47.1152 98.708 44.9883 97.8379L43.4766 99.7803C45.6387 100.756 48.2314 102.268 49.4883 103.419L51 101.222ZM46.6758 120.303C48.2666 117.104 50.0244 112.92 51.3604 109.36L49.2334 107.884C47.7568 111.698 45.709 116.128 44.2676 118.756L46.6758 120.303ZM56.6865 107.559C55.8604 110.292 54.3486 113.395 52.1162 115.196L54.0938 116.664C56.4316 114.616 57.8379 111.268 58.7783 108.35L56.6865 107.559ZM61.1514 117.824C61.1514 118.22 61.0459 118.36 60.5801 118.36C60.0703 118.396 58.5234 118.396 56.7217 118.36C57.082 119.046 57.3721 120.048 57.4775 120.733C59.8945 120.733 61.4414 120.733 62.4082 120.338C63.3838 119.907 63.6387 119.187 63.6387 117.824L63.6387 103.709L61.1514 103.709L61.1514 117.824ZM65.0801 108.824C66.1523 111.232 67.1631 114.361 67.4883 116.453L69.6504 115.627C69.29 113.605 68.2441 110.477 67.1279 108.104L65.0801 108.824ZM69.5361 107.849C71.5576 110.582 73.6758 114.326 74.5811 116.778L76.7432 115.627C75.873 113.21 73.6758 109.58 71.5928 106.838L69.5361 107.849ZM95.6396 94.6387L87.6855 94.6387C87.7207 92.582 87.7559 90.499 87.7559 88.3721L85.1279 88.3721C85.1279 90.499 85.1279 92.582 85.0928 94.6387L80.0479 94.6387L80.0479 97.2666L85.0225 97.2666C84.7324 106.267 83.6514 114.221 79.1865 118.932C79.8369 119.336 80.8037 120.197 81.208 120.769C86.0684 115.513 87.29 106.908 87.6152 97.2666L93.0469 97.2666C92.792 111.048 92.4756 115.952 91.6406 116.954C91.3945 117.464 91.0342 117.569 90.4541 117.534C89.8037 117.534 88.2568 117.534 86.6045 117.385C87.0703 118.141 87.3252 119.292 87.3955 120.092C88.9775 120.197 90.6387 120.197 91.6055 120.048C92.6865 119.942 93.3369 119.617 93.9873 118.686C95.1035 117.139 95.3496 111.918 95.6396 96.001L95.6396 94.6387ZM101.115 115.012L101.115 94.9199L108.094 94.9199L108.094 115.012L101.115 115.012ZM98.5928 92.3359L98.5928 120.197L101.115 120.197L101.115 117.569L108.094 117.569L108.094 119.942L110.757 119.942L110.757 92.3359L98.5928 92.3359Z" fill-rule="evenodd" fill="#FFFFFF"/>
	<g clip-path="url(#clip300_1702)">
		<path id="path" d="M66 49.5996L90 49.5996C91.6001 49.5996 92.4001 50.4004 92.4001 52C92.4001 53.5996 91.6001 54.4004 90 54.4004L66 54.4004C64.4001 54.4004 63.6001 53.5996 63.6001 52C63.6001 50.4004 64.4001 49.5996 66 49.5996Z" fill-rule="nonzero" fill="#FFFFFF"/>
		<path id="path" d="M80.4001 40L80.4001 64C80.4001 65.5996 79.6001 66.4004 78 66.4004C76.4001 66.4004 75.6001 65.5996 75.6001 64L75.6001 40C75.6001 38.4004 76.4001 37.5996 78 37.5996C79.6001 37.5996 80.4001 38.4004 80.4001 40Z" fill-rule="nonzero" fill="#FFFFFF"/>
		<path id="path" d="M78 76C64.7449 76 54 65.2559 54 52C54 38.7441 64.7449 28 78 28C91.2551 28 102 38.7441 102 52C102 65.2559 91.2551 76 78 76ZM78 71.1992C78.3142 71.1992 78.6282 71.1914 78.9421 71.1777C79.2559 71.1621 79.5693 71.1387 79.8818 71.1074C80.1946 71.0762 80.5063 71.0391 80.8171 70.9922C81.1279 70.9453 81.4375 70.8926 81.7458 70.832C82.054 70.7695 82.3604 70.7012 82.6653 70.625C82.97 70.5488 83.2727 70.4648 83.5735 70.373C83.8743 70.2812 84.1724 70.1836 84.4683 70.0781C84.7642 69.9727 85.0571 69.8594 85.3474 69.7383C85.6379 69.6191 85.925 69.4902 86.209 69.3574C86.4932 69.2227 86.7737 69.0801 87.0508 68.9336C87.3279 68.7852 87.6013 68.6309 87.8708 68.4688C88.1404 68.3066 88.4058 68.1387 88.667 67.9648C88.9282 67.7891 89.1851 67.6094 89.4375 67.4219C89.6897 67.2344 89.9375 67.041 90.1804 66.8418C90.4233 66.6426 90.6611 66.4375 90.894 66.2266C91.1267 66.0156 91.3542 65.7988 91.5764 65.5762C91.7986 65.3535 92.0151 65.127 92.2263 64.8945C92.4373 64.6602 92.6426 64.4238 92.8418 64.1797C93.0413 63.9375 93.2344 63.6895 93.4216 63.4375C93.6089 63.1855 93.7896 62.9277 93.9641 62.666C94.1387 62.4062 94.3069 62.1406 94.4685 61.8711C94.6299 61.6016 94.7847 61.3281 94.9329 61.0508C95.0811 60.7734 95.2222 60.4922 95.3567 60.209C95.491 59.9258 95.6182 59.6387 95.7385 59.3477C95.8586 59.0566 95.9717 58.7637 96.0776 58.4688C96.1836 58.1719 96.282 57.875 96.3733 57.5742C96.4644 57.2734 96.5483 56.9707 96.6245 56.666C96.7009 56.3613 96.7698 56.0547 96.8311 55.7461C96.8923 55.4375 96.946 55.1289 96.9922 54.8164C97.0383 54.5059 97.0767 54.1953 97.1077 53.8828C97.1384 53.5684 97.1614 53.2559 97.1768 52.9414C97.1924 52.6289 97.2 52.3145 97.2 52C97.2 51.6855 97.1924 51.3711 97.1768 51.0586C97.1614 50.7441 97.1384 50.4316 97.1077 50.1172C97.0767 49.8047 97.0383 49.4941 96.9922 49.1836C96.946 48.8711 96.8923 48.5625 96.8311 48.2539C96.7698 47.9453 96.7009 47.6387 96.6245 47.334C96.5483 47.0293 96.4644 46.7266 96.3733 46.4258C96.282 46.125 96.1836 45.8281 96.0776 45.5312C95.9717 45.2363 95.8586 44.9434 95.7385 44.6523C95.6182 44.3613 95.491 44.0742 95.3567 43.791C95.2222 43.5078 95.0811 43.2266 94.9329 42.9492C94.7847 42.6719 94.6299 42.3984 94.4685 42.1289C94.3069 41.8594 94.1387 41.5938 93.9641 41.334C93.7896 41.0723 93.6089 40.8145 93.4216 40.5625C93.2344 40.3105 93.0413 40.0625 92.8418 39.8203C92.6426 39.5762 92.4373 39.3398 92.2263 39.1055C92.0151 38.873 91.7986 38.6465 91.5764 38.4238C91.3542 38.2012 91.1267 37.9844 90.894 37.7734C90.6611 37.5625 90.4233 37.3574 90.1804 37.1582C89.9375 36.959 89.6897 36.7656 89.4375 36.5781C89.1851 36.3906 88.9282 36.2109 88.667 36.0352C88.4058 35.8613 88.1404 35.6934 87.8708 35.5312C87.6013 35.3691 87.3279 35.2148 87.0508 35.0664C86.7737 34.9199 86.4932 34.7773 86.209 34.6426C85.925 34.5098 85.6379 34.3809 85.3474 34.2617C85.0571 34.1406 84.7642 34.0273 84.4683 33.9219C84.1724 33.8164 83.8743 33.7188 83.5735 33.627C83.2727 33.5352 82.97 33.4512 82.6653 33.375C82.3604 33.2988 82.054 33.2305 81.7458 33.168C81.4375 33.1074 81.1279 33.0547 80.8171 33.0078C80.5063 32.9609 80.1946 32.9238 79.8818 32.8926C79.5693 32.8613 79.2559 32.8379 78.9421 32.8223C78.6282 32.8086 78.3142 32.8008 78 32.8008C77.6858 32.8008 77.3718 32.8086 77.0579 32.8223C76.7441 32.8379 76.4307 32.8613 76.1182 32.8926C75.8054 32.9238 75.4937 32.9609 75.1829 33.0078C74.8721 33.0547 74.5625 33.1074 74.2542 33.168C73.946 33.2305 73.6396 33.2988 73.3347 33.375C73.03 33.4512 72.7273 33.5352 72.4265 33.627C72.1257 33.7188 71.8276 33.8164 71.5317 33.9219C71.2358 34.0273 70.9429 34.1406 70.6526 34.2617C70.3621 34.3809 70.075 34.5098 69.791 34.6426C69.5068 34.7773 69.2263 34.9199 68.9492 35.0664C68.6721 35.2148 68.3987 35.3691 68.1292 35.5312C67.8596 35.6934 67.5942 35.8613 67.333 36.0352C67.0718 36.2109 66.8149 36.3906 66.5625 36.5781C66.3103 36.7656 66.0625 36.959 65.8196 37.1582C65.5767 37.3574 65.3389 37.5625 65.106 37.7734C64.8733 37.9844 64.6458 38.2012 64.4236 38.4238C64.2014 38.6465 63.9849 38.873 63.7737 39.1055C63.5627 39.3398 63.3574 39.5762 63.1582 39.8203C62.9587 40.0625 62.7656 40.3105 62.5784 40.5625C62.3911 40.8145 62.2104 41.0723 62.0359 41.334C61.8613 41.5938 61.6931 41.8594 61.5315 42.1289C61.3701 42.3984 61.2153 42.6719 61.0671 42.9492C60.9189 43.2266 60.7778 43.5078 60.6433 43.791C60.509 44.0742 60.3818 44.3613 60.2615 44.6523C60.1414 44.9434 60.0283 45.2363 59.9224 45.5312C59.8164 45.8281 59.718 46.125 59.6267 46.4258C59.5356 46.7266 59.4517 47.0293 59.3755 47.334C59.2991 47.6387 59.2302 47.9453 59.1689 48.2539C59.1077 48.5625 59.054 48.8711 59.0078 49.1836C58.9617 49.4941 58.9233 49.8047 58.8923 50.1172C58.8616 50.4316 58.8386 50.7441 58.8232 51.0586C58.8076 51.3711 58.8 51.6855 58.8 52C58.8 52.3145 58.8076 52.6289 58.8232 52.9414C58.8386 53.2559 58.8616 53.5684 58.8923 53.8828C58.9233 54.1953 58.9617 54.5059 59.0078 54.8164C59.054 55.1289 59.1077 55.4375 59.1689 55.7461C59.2302 56.0547 59.2991 56.3613 59.3755 56.666C59.4517 56.9707 59.5356 57.2734 59.6267 57.5742C59.718 57.875 59.8164 58.1719 59.9224 58.4688C60.0283 58.7637 60.1414 59.0566 60.2615 59.3477C60.3818 59.6387 60.509 59.9258 60.6433 60.209C60.7778 60.4922 60.9189 60.7734 61.0671 61.0508C61.2153 61.3281 61.3701 61.6016 61.5315 61.8711C61.6931 62.1406 61.8613 62.4062 62.0359 62.666C62.2104 62.9277 62.3911 63.1855 62.5784 63.4375C62.7656 63.6895 62.9587 63.9375 63.1582 64.1797C63.3574 64.4238 63.5627 64.6602 63.7737 64.8945C63.9849 65.127 64.2014 65.3535 64.4236 65.5762C64.6458 65.7988 64.8733 66.0156 65.106 66.2266C65.3389 66.4375 65.5767 66.6426 65.8196 66.8418C66.0625 67.041 66.3103 67.2344 66.5625 67.4219C66.8149 67.6094 67.0718 67.7891 67.333 67.9648C67.5942 68.1387 67.8596 68.3066 68.1292 68.4688C68.3987 68.6309 68.6721 68.7852 68.9492 68.9336C69.2263 69.0801 69.5068 69.2227 69.791 69.3574C70.075 69.4902 70.3621 69.6191 70.6526 69.7383C70.9429 69.8594 71.2358 69.9727 71.5317 70.0781C71.8276 70.1836 72.1257 70.2812 72.4265 70.373C72.7273 70.4648 73.03 70.5488 73.3347 70.625C73.6396 70.7012 73.946 70.7695 74.2542 70.832C74.5625 70.8926 74.8721 70.9453 75.1829 70.9922C75.4937 71.0391 75.8054 71.0762 76.1182 71.1074C76.4307 71.1387 76.7441 71.1621 77.0579 71.1777C77.3718 71.1914 77.6858 71.1992 78 71.1992Z" fill-rule="nonzero" fill="#FFFFFF"/>
	</g>
</svg>
