<svg width="32.000000" height="32.003906" viewBox="0 0 32 32.0039" fill="none" xmlns="http://www.w3.org/2000/svg" xmlns:xlink="http://www.w3.org/1999/xlink">
	<desc>
			Created with Pixso.
	</desc>
	<defs/>
	<path id="path" d="M6.98682 23.1504L10.8442 23.1504L26.6665 7.32812L22.8979 3.55859L6.98682 19.4355L6.98682 23.1504ZM25.4043 1.05273L29.1733 4.82227C29.2559 4.9043 29.334 4.99023 29.4077 5.08008C29.4819 5.16992 29.5513 5.26367 29.6162 5.36133C29.6807 5.45703 29.7407 5.55664 29.7959 5.66016C29.8506 5.76172 29.9004 5.86719 29.9453 5.97461C29.9897 6.08398 30.0288 6.19336 30.063 6.30469C30.0967 6.41602 30.125 6.5293 30.1479 6.64258C30.1704 6.75781 30.1875 6.87305 30.1992 6.98828C30.2104 7.10352 30.2163 7.2207 30.2163 7.33789C30.2163 7.45312 30.2104 7.57031 30.1992 7.68555C30.1875 7.80078 30.1704 7.91602 30.1479 8.03125C30.125 8.14453 30.0967 8.25781 30.063 8.36914C30.0288 8.48047 29.9897 8.5918 29.9453 8.69922C29.9004 8.80664 29.8506 8.91211 29.7959 9.01367C29.7407 9.11719 29.6807 9.2168 29.6162 9.31445C29.5513 9.41016 29.4819 9.50391 29.4077 9.59375C29.334 9.68359 29.2559 9.76953 29.1733 9.85156L13.3511 25.6738C13.187 25.8398 13.0078 25.9883 12.8145 26.1172C12.6211 26.248 12.417 26.3574 12.2021 26.4473C11.9868 26.5371 11.7651 26.6055 11.5366 26.6523C11.3081 26.6992 11.0776 26.7227 10.8442 26.7227L6.18652 26.7227C6.09717 26.7266 6.00781 26.7246 5.91846 26.7188C5.8291 26.7129 5.74023 26.7031 5.65186 26.6875C5.56348 26.6719 5.47607 26.6523 5.38965 26.6289C5.30322 26.6055 5.21826 26.5781 5.13477 26.5449C5.05127 26.5137 4.96924 26.4766 4.88965 26.4355C4.80957 26.3945 4.73193 26.3516 4.65674 26.3027C4.58105 26.2539 4.5083 26.2012 4.43848 26.1465C4.36816 26.0898 4.30127 26.0312 4.23682 25.9688C4.17285 25.9062 4.11182 25.8398 4.0542 25.7715C3.99658 25.7031 3.94287 25.6309 3.89258 25.5586C3.8418 25.4844 3.79541 25.4062 3.75293 25.3281C3.70996 25.25 3.67139 25.168 3.63721 25.0859C3.60254 25.0039 3.57227 24.9199 3.54639 24.834C3.52002 24.748 3.49854 24.6602 3.48096 24.5723C3.46387 24.4844 3.45117 24.3965 3.44287 24.3066C3.43408 24.2188 3.43066 24.1289 3.43115 24.0391L3.43115 19.4355C3.43213 19.2012 3.45557 18.9707 3.50195 18.7422C3.54834 18.5137 3.6167 18.293 3.70654 18.0781C3.79639 17.8613 3.90674 17.6582 4.03662 17.4648C4.16699 17.2715 4.31445 17.0918 4.47998 16.9277L20.3022 1.10547C20.3838 1.01953 20.4697 0.9375 20.5596 0.861328C20.6499 0.783203 20.7432 0.710938 20.8403 0.642578C20.9375 0.574219 21.0381 0.511719 21.1416 0.453125C21.2451 0.396484 21.3511 0.34375 21.46 0.294922C21.5688 0.248047 21.6797 0.207031 21.7925 0.169922C21.9058 0.134766 22.02 0.103516 22.1362 0.078125C22.2524 0.0527344 22.3691 0.0351562 22.4873 0.0214844C22.605 0.0078125 22.7236 0.00195312 22.8423 0C22.9609 -0.00195312 23.0791 0.00390625 23.1973 0.0136719C23.3154 0.0253906 23.4326 0.0410156 23.5493 0.0644531C23.666 0.0859375 23.7812 0.113281 23.8945 0.148438C24.0083 0.181641 24.1201 0.220703 24.23 0.265625C24.3398 0.3125 24.4468 0.361328 24.5518 0.417969C24.6562 0.474609 24.7578 0.535156 24.8564 0.601562C24.9551 0.666016 25.0503 0.738281 25.1421 0.8125C25.2334 0.888672 25.3208 0.96875 25.4043 1.05273ZM1.77783 32.0039C1.66113 32.0039 1.54541 31.9922 1.43115 31.9688C1.31641 31.9473 1.20508 31.9121 1.09766 31.8691C0.989746 31.8242 0.887207 31.7695 0.790039 31.7031C0.692871 31.6387 0.603027 31.5664 0.520508 31.4824C0.437988 31.4004 0.364258 31.3105 0.299805 31.2129C0.234863 31.1172 0.180176 31.0137 0.135254 30.9062C0.0908203 30.7988 0.0571289 30.6875 0.0341797 30.5723C0.0112305 30.459 0 30.3418 0 30.2266C0 30.1094 0.0112305 29.9941 0.0341797 29.8789C0.0571289 29.7637 0.0908203 29.6543 0.135254 29.5449C0.180176 29.4375 0.234863 29.3359 0.299805 29.2383C0.364258 29.1406 0.437988 29.0508 0.520508 28.9688C0.603027 28.8867 0.692871 28.8125 0.790039 28.748C0.887207 28.6836 0.989746 28.6289 1.09766 28.584C1.20508 28.5391 1.31641 28.5059 1.43115 28.4824C1.54541 28.459 1.66113 28.4473 1.77783 28.4473L30.2222 28.4473C30.3389 28.4473 30.4546 28.459 30.5688 28.4824C30.6836 28.5059 30.7949 28.5391 30.9023 28.584C31.0103 28.6289 31.1128 28.6836 31.21 28.748C31.3071 28.8125 31.397 28.8867 31.4795 28.9688C31.562 29.0508 31.6357 29.1406 31.7002 29.2383C31.7651 29.3359 31.8198 29.4375 31.8647 29.5449C31.9092 29.6543 31.9429 29.7637 31.9658 29.8789C31.9888 29.9941 32 30.1094 32 30.2266C32 30.3418 31.9888 30.459 31.9658 30.5723C31.9429 30.6875 31.9092 30.7988 31.8647 30.9062C31.8198 31.0137 31.7651 31.1172 31.7002 31.2129C31.6357 31.3105 31.562 31.4004 31.4795 31.4824C31.397 31.5664 31.3071 31.6387 31.21 31.7031C31.1128 31.7695 31.0103 31.8242 30.9023 31.8691C30.7949 31.9121 30.6836 31.9473 30.5688 31.9688C30.4546 31.9922 30.3389 32.0039 30.2222 32.0039L1.77783 32.0039Z" fill-rule="nonzero" fill="#FFFFFF"/>
</svg>
